<?xml version="1.0" encoding="UTF-8" standalone="no"?><!DOCTYPE svg PUBLIC "-//W3C//DTD SVG 1.1//EN" "http://www.w3.org/Graphics/SVG/1.1/DTD/svg11.dtd"><svg width="100%" height="100%" viewBox="0 0 1250 1250" version="1.1" xmlns="http://www.w3.org/2000/svg" xmlns:xlink="http://www.w3.org/1999/xlink" xml:space="preserve" xmlns:serif="http://www.serif.com/" style="fill-rule:evenodd;clip-rule:evenodd;stroke-linejoin:round;stroke-miterlimit:2;"><rect id="_01_logo_raw" serif:id="01_logo_raw" x="0" y="0" width="1250" height="1250" style="fill:none;"/><clipPath id="_clip1"><rect x="0" y="0" width="1250" height="1250"/></clipPath><g clip-path="url(#_clip1)"><path d="M-0.482,0.247l1042.149,-0.247c54.273,-0.431 118.343,21.818 155.511,61.368c37.169,39.551 56.142,92.821 52.345,146.963l-0.004,0.006c-12.081,172.238 -223.395,410.995 -204.167,416.183c67.274,18.15 206.155,103.486 204.649,310.897c-1.797,247.433 -137.417,307.44 -208.333,314.583c-56.263,5.668 -1041.667,0 -1041.667,0l0,-208.333l418.268,-625.238l206.25,0l-416.667,624.274l729.167,0l4.508,-0.012c27.174,-0.075 53.148,-11.205 71.946,-30.827c18.798,-19.623 28.803,-46.052 27.712,-73.204l-0,-1.076c-0,-33.851 -16.151,-63.947 -41.185,-82.977c-17.339,-13.181 -38.938,-21.053 -62.383,-21.188l-0.599,-0.003l-312.5,-0l311.238,-461.915c21.533,-31.957 23.664,-73.191 5.54,-107.198c-18.124,-34.007 -53.541,-55.23 -92.075,-55.175l-641.615,0.915c-55.161,0.079 -108.09,-21.779 -147.123,-60.756c-39.033,-38.977 -60.966,-91.876 -60.966,-147.037Z" style="fill:#1a1a1a;stroke:#1a1a1a;stroke-width:4.17px;"/></g></svg>