<?xml version="1.0" encoding="UTF-8" standalone="no"?><!DOCTYPE svg PUBLIC "-//W3C//DTD SVG 1.1//EN" "http://www.w3.org/Graphics/SVG/1.1/DTD/svg11.dtd"><svg width="100%" height="100%" viewBox="0 0 1250 1250" version="1.1" xmlns="http://www.w3.org/2000/svg" xmlns:xlink="http://www.w3.org/1999/xlink" xml:space="preserve" xmlns:serif="http://www.serif.com/" style="fill-rule:evenodd;clip-rule:evenodd;stroke-linejoin:round;stroke-miterlimit:2;"><rect id="_02_logo_icon" serif:id="02_logo_icon" x="0" y="0" width="1250" height="1250" style="fill:none;"/><g id="_02_logo_icon1" serif:id="02_logo_icon"><path d="M93.75,93.965l885.476,-0.21c46.114,-0.365 100.551,18.508 132.132,52.058c31.581,33.551 47.702,78.739 44.475,124.667l-0.004,0.005c-10.265,146.107 -189.81,348.642 -173.473,353.042c57.16,15.396 175.162,87.786 173.883,263.73c-1.527,209.894 -116.758,260.797 -177.013,266.857c-47.805,4.808 -885.067,0 -885.067,0l0,-176.726l355.387,-530.381l175.243,-0l-354.027,529.563l619.547,0l3.83,-0.011c23.089,-0.064 45.158,-9.505 61.13,-26.151c15.972,-16.646 24.473,-39.065 23.546,-62.098l-0,-0.913c-0,-28.715 -13.723,-54.245 -34.993,-70.388c-14.732,-11.181 -33.084,-17.859 -53.005,-17.973l-0.509,-0.003l-265.52,-0l264.448,-391.836c18.296,-27.109 20.106,-62.087 4.707,-90.935c-15.399,-28.848 -45.492,-46.851 -78.233,-46.804l-545.157,0.776c-46.868,0.067 -91.84,-18.475 -125.005,-51.538c-33.165,-33.064 -51.8,-77.937 -51.8,-124.73Z" style="fill:#1a1a1a;stroke:#1a1a1a;stroke-width:4.17px;"/></g></svg>