<svg width="472" height="56" viewBox="0 0 472 56" fill="none" xmlns="http://www.w3.org/2000/svg">
<ellipse cx="463.934" cy="10.5789" rx="7.66125" ry="7.5518" fill="#EF4985"/>
<path d="M0 55.8828V3.86658H10.9153C16.1484 3.86658 20.2809 4.38315 23.313 5.41628C26.5696 6.42696 29.523 8.14512 32.1733 10.5707C37.5411 15.4669 40.225 21.9016 40.225 29.8747C40.225 37.8703 37.4288 44.3386 31.8364 49.2797C29.0289 51.7503 26.0867 53.4684 23.0098 54.4342C20.135 55.3999 16.0586 55.8828 10.7806 55.8828H0ZM7.8496 48.5049H11.387C14.9131 48.5049 17.8441 48.1343 20.1799 47.3931C22.5157 46.607 24.6269 45.3605 26.5135 43.6536C30.3765 40.1275 32.308 35.5345 32.308 29.8747C32.308 24.17 30.399 19.5433 26.5808 15.9947C23.1445 12.8279 18.0799 11.2445 11.387 11.2445H7.8496V48.5049Z" fill="#ECEFE9"/>
<path d="M95.3738 43.2512H73.1052L67.3106 55.8847H58.8546L84.5932 0.600586L109.422 55.8847H100.831L95.3738 43.2512ZM92.1733 35.8733L84.4585 18.1864L76.373 35.8733H92.1733Z" fill="#ECEFE9"/>
<path d="M144.662 11.2493V55.8876H136.812V11.2493H121.381V3.87134H160.059V11.2493H144.662Z" fill="#ECEFE9"/>
<path d="M208.571 43.2512H186.302L180.508 55.8847H172.052L197.79 0.600586L222.619 55.8847H214.028L208.571 43.2512ZM205.37 35.8733L197.655 18.1864L189.57 35.8733H205.37Z" fill="#ECEFE9"/>
<path d="M246.403 55.8876V3.87134H254.219C257.7 3.87134 260.474 4.14085 262.54 4.67988C264.629 5.21891 266.392 6.12852 267.829 7.40871C269.289 8.73382 270.446 10.3846 271.299 12.361C272.175 14.3599 272.613 16.3813 272.613 18.4251C272.613 22.1534 271.187 25.3089 268.335 27.8918C271.097 28.8351 273.276 30.4859 274.87 32.8441C276.487 35.1799 277.296 37.8975 277.296 40.9969C277.296 45.0621 275.858 48.4984 272.984 51.3058C271.254 53.0352 269.312 54.2368 267.155 54.9106C264.797 55.5619 261.844 55.8876 258.295 55.8876H246.403ZM254.252 26.2073H256.712C259.631 26.2073 261.765 25.5672 263.113 24.287C264.483 22.9844 265.168 21.0753 265.168 18.5599C265.168 16.1118 264.472 14.2589 263.079 13.0011C261.687 11.7209 259.665 11.0808 257.015 11.0808H254.252V26.2073ZM254.252 48.5096H259.104C262.652 48.5096 265.258 47.8134 266.92 46.4209C268.671 44.9161 269.547 43.007 269.547 40.6937C269.547 38.4478 268.705 36.5612 267.021 35.0339C265.381 33.5291 262.45 32.7767 258.228 32.7767H254.252V48.5096Z" fill="#ECEFE9"/>
<path d="M334.23 43.2512H311.961L306.167 55.8847H297.711L323.449 0.600586L348.278 55.8847H339.688L334.23 43.2512ZM331.029 35.8733L323.315 18.1864L315.229 35.8733H331.029Z" fill="#ECEFE9"/>
<path d="M376.443 3.86658V48.5049H395.209V55.8828H368.593V3.86658H376.443Z" fill="#ECEFE9"/>
<path d="M424.281 3.86658V48.5049H443.048V55.8828H416.432V3.86658H424.281Z" fill="#ECEFE9"/>
</svg>
