<svg xmlns="http://www.w3.org/2000/svg" xmlns:xlink="http://www.w3.org/1999/xlink" id="High_Res_-_White_Background_xA0_Image_1_" x="0px" y="0px" viewBox="0 0 726.4 827" style="enable-background:new 0 0 726.4 827;" xml:space="preserve"> <style type="text/css"> .st0{fill-rule:evenodd;clip-rule:evenodd;fill:#DD3E33;} .st1{fill-rule:evenodd;clip-rule:evenodd;fill:#29347D;} .st2{fill-rule:evenodd;clip-rule:evenodd;} .st3{fill-rule:evenodd;clip-rule:evenodd;fill:#FFFFFF;} </style> <path class="st0" d="M386,7.4c0-0.3-0.9-0.6-0.4-0.7c66.2,0.2,132.6,0.2,198.7,0.5c0.2,0.3-0.2,0.6-0.4,0.7 c-14.1,15.9-28.2,31.6-42.7,47.5c-0.9,1-2.5,2.6-2.6,3.4c-0.3,1.4,0.1,3.2,0,4.9c-1.1,23.7-0.4,48.6-1.1,72.6 c-6.8,0-13.2,0.3-19.9,0.2c0.1-26.7-0.1-53.8-0.1-80.9c0-1.9-0.3-3.9,0-5.4c0.2-1.1,1.9-2.2,2.8-3.1c6.5-7.2,13.7-14,19.9-21 c-37.2,0.1-74.2,0.3-111.4,0.4c-0.1,0.4,0.3,0.6,0.5,0.8c6.3,7.1,12.9,14,19.6,21.1c1.1,1.1,2.3,2.3,3.5,3.6c0.9,0.9,3,2.8,3.2,3.8 c0.5,2.2,0,6.7,0,9.2c0,15.3-0.2,30.4-0.5,45.6c-0.1,2.9-0.1,6.2,0,9.2c0.1,3.1,0.6,6.4,0.1,9c-0.2,1.4-1.8,2.6-2.3,4.4 c-0.4,1.4-0.6,3,0.1,4.4c-8.9,3.7-12.5,12.7-13.6,24.2c4.9,0.3,10.3,0.2,15.5,0.2c0.9,8.6,0.6,17.6,0.6,26.6s0.1,18,0.1,27 c0,17.8,1.7,37.4-3.4,50.6c-5,13-14.9,21.6-27.7,26.5c-6.6,2.5-14.2,4-23.2,4c-17.2,0-36.9,0-54.1,0c-8.6,0-16-2.2-22.3-4.8 c-12.7-5.2-21.8-14.2-26.4-27.8c-2.4-7-2.8-15.2-2.8-24.4c0-27.1,0.1-54.1,0.4-81c4,0.1,7.7-0.1,11.6-0.1c-0.3-5.2-1.5-10-3.4-14 c-1.9-4.1-4.5-7.2-8.2-9.5c0.5-24.6-0.2-49.5-0.2-74.6c0-1.7-0.4-3.6-0.1-4.8c0.2-1.1,2.3-2.9,3.2-3.8c7-7.4,13.7-14.5,20.5-22 c1.1-1.2,2.2-2.4,3.1-3.7c-37.2,0-74.2-0.3-111.4-0.4c-0.1,0.4,0.6,1,1.1,1.4c6.3,6.3,12.3,13.1,18.8,19.6c0.9,0.9,2.5,2.1,2.8,3.1 c0.3,1.3,0,3.4,0,5.3c0,25.9,0,52.4-0.4,77.9c-6.6-0.1-13.4-0.1-19.8-0.4c0.1-21.4-0.8-43.5-0.8-64.9c0-3.1,0.2-6.4-0.2-9.1 c-0.2-1.1-1.7-2.5-2.8-3.7c-14.3-15.5-27.8-31-41.8-46.7c-0.4-0.4-1.2-1-1.1-1.4c48.1-0.1,96.8-0.4,145.3-0.4c6.9,0,13.9,0.3,20.8,0 c9.1-0.4,18.9-0.1,28.6-0.1c1.2,0,3.3-0.3,4,0c0.5,0.2,0,0.4-0.2,0.7c-3.5,4.2-7.9,8.8-11.4,12.6c-11.4,12.4-22.1,24.9-33.5,37.2 c-0.9,1-2.7,2.6-2.9,3.5c-0.5,2.1,0,6.3,0,8.8c0,54.7-0.7,110.2-0.7,164.5c0,3.1-0.2,5.9,0,8.5c0.6,7.7,2.7,14.5,5.9,20.2 c4.2,7.5,10.2,13.1,19.2,15.6c4.7,1.3,10.1,1.3,16.1,1.3c5.6,0,11.7,0,17.3,0c11.1,0,24.6,1.1,33.5-1.3 c12.9-3.5,20.9-14.2,24.1-28.1c1.1-4.7,1.2-10,1.2-16.2c0-54.3-0.7-109.3-0.7-164.4c0-3,0.4-6.2,0-8.6c-0.2-1-1.8-2.5-2.8-3.6 C416,40.4,401.1,24.5,386,7.4z"></path> <path class="st1" d="M294.2,140.3c-1.7-1-4-1.1-6.1-1.7c-2-0.5-4.2-1-5.4-2.5c2.6-1,6.4-0.1,7-3c0.6-3.6-3.2-4.2-5.8-5 c-2.5-0.8-4.9-1.5-7-2.6c-1.1-0.6-2-1.5-3-1.8c-2.6-0.6-6.4,1.9-8.3,3.2c-2.3,1.6-4.5,3.3-6.5,4.7c-3.9,2.7-8.9,6.7-15.2,7 c-15.2,0.7-29.2-0.5-43.7-0.6c0.1-2.8,0.7-5-0.6-7.3c-1.1-2-4-2.7-3.8-5c0.2-2.8,4.9-3.6,6.8-4.6c0-7.8,0-15.6,0-23.4 c-6.7-0.2-12.1,2.1-18.4,2.8c-6.6,0.7-13.4,0.2-20.2-0.4c-5.5-3.5-10.9-8.6-17.5-10.8c-1.1-0.4-2.3-0.4-3.1-1 c-2.7-1.8-0.9-9.8,1.9-9.8c0.6,0,1.9,0.9,2.5,1.3c2.1,1.4,5.2,3.5,6.1,5.6c0.4,1,0.3,1.9,0.7,2.6c1.3,2.7,4.8,5,8.3,4.9 c3-0.1,5.6-1.9,6.7-4.2c1.2-2.4,0.7-6.3,2.6-7c1.7-0.6,5,0.7,6.6,1.7c0.9,0.5,1.5,1.8,2.4,2.2c1.5,0.6,4.5,0.6,6,0.6 c2.6,0,6.1-0.5,7.4-2.2c1.4-1.7,2.2-5.6,2-8.8c-0.2-3.4-1.3-5.7-3-7.8c-1.5-1.1-2.9-2.2-4.8-3.2c-1.1-0.6-4.8-2.6-5.9-1 c-0.6,0.9,0.3,2.9,0.7,4.2c1.1,3,1.7,6.7-0.7,8.6c-2.6-0.1-5.4,0.6-7.8-0.2c-1-0.3-1.4-1.3-2.4-1.4c-4-0.7-9.3,4.7-13.8,0.7 c-0.9-0.8-1.5-2.4-2-3.7c-0.6-1.4-1.2-2.8-1.2-4.7c0-3.3,2.3-4.4,5.4-4.3c0.6,1,0.2,2.1,0.4,3.1c0.5,4,3.8,7.8,7.7,5.6 c2.4-1.3,4.1-3.9,6.2-6.4c1-1.2,2-2.4,2.9-3.5s2.2-2.5,2.8-3.6c0.8-1.8,1.8-5.9,1-7.8c-0.5-1.3-3.5-2.8-5.3-4 c-4.1-2.6-7.3-4.8-11.2-7.3c-4-2.7-8.5-5.3-11-9.4c-0.5-0.9-1-2.8-1.7-3.4c-0.8-0.6-2.8-1-4.1-1.4c-1.5-0.5-3-1.1-4.1-1.6 c-2.6-1-5.5-1.9-7.7-3.5c-1.7-1.2-3.6-3.4-5.2-5.4c-1.7-2.1-3.4-4.1-4.4-6.2c-0.4-0.9-0.3-2.9-1.6-2.2C122,7.8,120,14,121,20.2 c0.2,1.3,0.8,2.5,1,3.8c0.2,1.5,0.5,3.9-0.2,4.8c-0.5,0.6-1.8,0.7-2.4,1.1c-1.7,0.9-3.5,2.5-4.9,3.8c-5.9,5.4-12.2,12.5-14.6,20.8 c-0.7,2.3-0.7,4.9-1.2,7.7c-0.5,2.5-1.1,4.9-1.9,7c-1.3,3.2-3.5,5.1-4.2,8.8c3.5,0.4,7.9,0.3,10.1-0.8c0.1,4.1,0,8-0.1,12 s0.3,8.1-0.1,12c-0.2,2.3-1.2,4.9-1.9,7.3c-0.7,2.6-1.4,5.2-2.3,7.1c-0.4,0.8-1.2,1.5-1,2c4.1,0.3,8.4-1,11-2.2 c-0.4,6-1.7,12.4-3.6,17.2c-0.2,0.6-1,1.6-1,1.9c6.2,0.2,10.4-1.5,13.2-4.4c0.9-1,1.4-2.5,2.8-2.9c0.3,3.8-0.9,7.3-1.8,10.6 c-0.8,2.7-1.7,6-3.1,7.9c-0.2,0.3-0.5,0.5-0.6,0.8c5,1.8,12.3,1.3,17.2-0.1c5.1-1.5,9.6-4,13-6.4c0.8,4.5,0.6,11-1.1,14.9 c-0.9,1.9-2.2,2.9-3.8,3.8c1.3,0.8,3.6,0.7,5.4,0.6c10.8-0.7,19.3-6.2,21.2-16c0.9,3.9,1.3,8.9,1.7,14c0.4,5,0.6,10.7-1,14.4 c-0.4,0.9-1.4,1.5-1.7,2.4c2.6,0.6,5.1-0.7,7.2-1.6c6.6-2.8,11.8-7.1,15.1-13c2.7,8.2,5.8,19.6,3,29.9c11.3-0.7,16.2-7.8,19.3-16.7 c2.8,5.7,7.5,9.5,9.7,15.7c2.9-1.1,4.9-3.2,6.8-5.6c2.2-2.8,4.6-7.5,3.1-11.8c-1.2-3.4-3.8-6.6-6.1-9.6c-2.4-3.2-5.3-5.9-7.3-8.3 c6.8,0.9,10.6,5.1,13.3,10c0.4,0.7,0.7,1.7,1.2,2.2c0.7,0.7,2.9,1.4,4.3,1.8c4.8,1.4,12.3,2,14.4-2c-0.7-1.4-2.2-2.5-1.8-4.7 c0.4-2,4.1-3.1,6.1-3.2c5.6-0.5,7.5,2.5,11.3,4.1c2.1,0.9,4.6,1.6,7.3,2c5.3,1,11.9,1.7,15-2.6c0-1.9,0.1-3.1-0.5-4.2 c-0.6-1.1-1.9-1.1-2.3-2.4c2.5-0.6,5.5-0.4,8.5-0.4s6.1,0,9,0C300.7,147.9,298.9,142.9,294.2,140.3z M146.5,40 c1.8,0.4,3.5-0.3,4.9,0.1c1.3,0.4,1.7,2.3,2.4,2.9c-2.7,0-5.2,0.1-7.8,0.2C146.2,42.1,146.4,41.1,146.5,40z M127.2,65.2 c-2.2-2.5-4.6-5.7-4.7-9.5c-0.1-3.7,1.4-7.4,4.3-8.8h0.1c0.1,0,0.2,0,0.2,0c0,2.8-0.4,5.6-0.2,8.4c0.4,6.8,5.2,11.7,7.6,16.7 C132.3,70.2,129.6,67.9,127.2,65.2z"></path> <path class="st1" d="M74.3,55.2c3.7,1.1,6,4.8,6.1,9.2c0.2,5.6-1.9,11.2-4.7,14.4c-0.8,0.9-2.4,3.1-1.8,4.2c0.7,1.2,3.9,0.1,4.7,0 c6.2-0.6,9.8,4.1,11.5,8.5c3.2,8.4,0.1,17.9-3.2,24.4c-1.1,2.1-2.9,3.9-4.1,6c-1.1,2-2.4,4.4-3.4,6.8s-2,5.2-1.9,8.2 c0.1,1.6,0.9,2.5,0.4,4.2c-1.7,0.2-3-1.2-4-2.3s-2.1-2.8-2.4-4.3c-0.6-3.1-0.2-7.3-0.4-10.9c-0.1-1.8,0.1-3.6,0.2-5.4 c0.2-2.3,0.9-4,1-6.5c0.1-3.8-0.5-7.7-1.8-10.9c-1.2-3-3.4-7.7-7.2-7.4c-2,0.2-4.3,2.5-5.9,3.8c-2.1,1.8-3.4,3.1-4.9,4.8 c-3,3.3-6.3,7.2-6.7,12.6c-0.2,3.2,0.5,6.9,1.1,9.6c0.6,2.9,1.7,5.5,2.9,7.7c2.5,4.3,6.8,7.6,10.2,11c3.5,3.5,7.1,7.2,9.8,11.4 c2.8,4.1,5.4,9.4,5.4,15.7c0,8-4,13.5-7.4,18.6c-1.8,2.6-3.6,5.2-5.3,7.8s-4.1,5.7-4.9,8.9c-1.1,4.2-1.3,13.2,0.6,16.3 c0.3,0.4,1.2,1.6,2.4,1.9c3.5,1,5.9-1.3,6.4-3.4c0.6-2.6-0.6-6.2,0.6-8.9c1.4-2.9,3.8-5.6,5.9-8.3s4.4-5,6.7-7.3 c2.4-2.4,5.1-4.2,7.8-6.2c2.7-2,5-4.4,7.4-6.6c10.1-9.3,18.5-19.2,26.2-30c7.4,0.1,12.9-1.6,18-3.8c-0.2,1.6-0.5,3.2-1.2,4.3 c-1.1,0.7-2.1,1.5-3.2,2.2c0.1,1.7-1.3,2.8-1.2,4.2c0,0.7,1.9,3,2.5,3.5c3.4,2.6,11.4,1.4,16.1,0.1c4.4-1.2,7.9-3.3,10.3-4.8 c-0.1,4.1,0.6,7.5-0.5,10.7c-0.4,1.1-1.9,1.9-2.2,2.9c-0.5,1.9,0.2,3.7-0.1,5.5c1.8,0.6,3.1,1.9,5,2.2c4.1,0.6,8.8-1.9,11.5-3.2 c3.5-1.7,6.4-4,8.8-5.6c0.9,5.2,2.2,12.6,0.1,17.3c-1,2.2-4.1,4.4-6.4,5.9c-7.1,4.6-18.7,6.2-28.7,7.7c-3.4,0.5-7.2,0.9-10.9,1.2 c-7.2,0.6-12.9,3.1-17.4,6.8c-2.1,1.8-5.2,5-4.4,8.3c0.6,2.5,3.1,4.5,5,6.4c5.9,5.5,11,11.6,14.2,19.9c3.8,10,7.1,27,2.3,38.3 c-2.2,5.2-6,9-11.3,11.4c-5.1,2.2-12.2,3-19.1,3.6c-6.8,0.6-14,0.6-21.7,1c-3.5,0.2-7.4,0.3-10.4,1c-3,0.6-6.5,2-6.8,4.4 c-0.3,2.3,1.5,4.2,2.5,5.8c3.3,5.1,6.4,10.3,8.9,16c2.5,0.9,6.3,2.2,8.9,0.7c1-0.6,1.7-1.8,2.6-2.5c5.1-3.7,12.8-1.4,16.8,1.4 c2.1,1.5,3.8,3.3,5.6,5.5c1.4,1.7,3.9,4.3,3.8,7.2c-0.1,4.4-4,2.7-8.3,3.2c-2.1,0.2-4.5,0.8-4.7,2c-0.2,1.5,4,4,5.4,5.3 c1.6,1.5,4.3,4.1,3.8,6.7c-0.4,2.4-3.8,3.2-6.6,3.8c-2.8,0.6-6.8,1.1-9.4,0.5c-1.7-0.5-2.6-2.2-4.8-1.9c-1.3,1.3-0.4,4.8-1,6.8 c-2.5,0.5-5.2-0.1-7.7,0.5c-1.3,0.3-1.7,1.5-2.8,1.8c-2.6,0.7-5.3-0.7-6.7-1.7c-3.9-2.9-5.9-9-6.6-15c-0.1-1.2,0.1-2.7-0.2-4 c-0.3-0.9-2.1-2.3-3-3.4c-2.9-3.3-6.3-6.3-8.9-9.8c-3.4-4.7-6.5-10.1-8.5-16.6c-1.9-6-4.3-12.4-7-18.1c-1.9-4.1-4.7-7.5-7.4-11.3 c-0.9-1.3-2.2-2.7-2-4.2c0.3-2.3,3.2-2.9,5.5-2c1.4,0.5,2.2,1.8,3.4,2.2c1.5,0.4,3.6,0.2,4.9,0c1.7-0.2,2.7-0.6,3.4-1.8 c-0.3-4.8-1.2-9.5,2.6-10.7c2.8-0.9,6.4,0.2,9.5,0.8c3,0.6,5.5,1.9,8.3,2.4c4,0.8,8.8-0.7,11.5-2c2.3-1.1,6.9-3.9,7.1-7.2 c0.2-3.1-3.1-5.6-4.6-7.6c-3.7-5.1-5.9-9.2-9.5-14.6c-1.4-2.1-3.2-5.7-5.6-6.4c-2-0.5-4.5-0.1-6.4-0.1c-6.4,0-11.5-1.3-14-5.2 c-2.8-4.3-4.3-11.5-3.7-18.6c0.3-3.4,1.2-6.2,2.3-9c1-2.7,2.4-5.5,2.8-8.5c0.1-1.1,0.1-2.5-0.2-3.2c-1.1-2.4-8.9-2.4-11.5-0.8 c-0.5,0.3-0.7,0.7-1.1,0.8c-2.3-2.6,0.4-5.8,1.9-7.9c0.8-1.1,1.7-2.4,2.5-3.4c1.2-1.4,2.4-3.1,4.6-3.2c2.9-0.2,5.3,1.9,6.7,3.4 c0.9,0.9,3.3,5,5,5c1.3,0,2-2,2.4-3c2.1-5.4,5-14.1,1.3-19.6c-1.5-2.2-4-4.4-6.1-6.4c-6.4-5.9-12.9-12.1-17-20.3 c-2.9-5.9-5.3-11.4-4.9-19.9c0.2-3.5,1.1-7.3,2.2-10.3c1-3,2.3-6.2,4-8.8c2.2-3.5,5.8-6.6,9-9.4s6.6-5.6,9.8-8.4 c1.7-1.4,3.4-2.7,4.8-4.3c2.8-3.1,5.2-6.9,7.4-10.8c1.4-2.5,3-5,3-8.5C74,55.4,74.1,55.3,74.3,55.2z"></path> <path class="st1" d="M710.3,194.5c-0.6-0.1-0.9-0.8-1.7-1.1c-2.8-1.1-9.9-1.3-11,1.4c-0.6,1.4,0,4,0.4,5.4c1.3,4.8,3.7,8.8,4.3,14 c0.9,7.6-0.7,15.9-4,20.2c-2.8,3.6-7.5,4.7-13.6,4.7c-1.8,0-4.6-0.3-6.4,0.1c-2.4,0.6-4.4,4.3-5.8,6.4c-4.1,6.1-7.3,12-12,18 c-0.9,1.1-2,2.5-2,4c0,3,3.5,5.4,5.5,6.6c2.4,1.5,5.4,2.6,9,3c4,0.4,6.8-1.1,10-1.9c2.7-0.7,6.9-1.8,10.3-1.7 c2.3,0.1,3.9,1.3,4.4,3.4c0.6,2.5-0.8,6.2,0,7.9c0.8,1.8,5.5,2.2,8,1.4c1.3-0.4,1.7-1.6,3.4-2.2c2.5-0.9,5.4,0,5.6,2.2 c0.2,1.4-1.2,2.9-2.2,4.2c-2.6,3.6-5.6,7.3-7.4,11.3c-2.6,5.8-5.1,12.4-7,18.1c-3.2,9.7-7.7,17.1-14.4,23.3c-0.9,0.9-1.9,2-3,3.2 c-0.9,1-2.8,2.4-3,3.2c-0.4,1.2-0.1,2.9-0.2,4.1c-0.6,6-2.5,11.6-6.5,14.8c-1.4,1.1-3.6,2.5-6.4,2c-1.6-0.2-1.7-1.5-3.1-1.9 c-2.5-0.7-4.9,0-7.7-0.5c-0.8-1.8,0.6-6-1-6.8s-4,1.9-5.4,2c-2.9,0.3-5.6,0.1-9-0.6c-2.3-0.5-5.7-1.3-6.4-3.4 c-1-2.9,1.8-5.4,3.6-7.1c1-0.9,1.6-1.6,2.9-2.5c0.8-0.6,2.7-1.4,2.6-2.8c-0.1-3.1-7.6-1.7-10.3-2.3c-2.5-0.5-3.1-3.2-2-5.8 c0.8-1.9,2.9-4.4,4.3-6c4.2-4.6,13.2-11.2,21.4-5.5c1.1,0.8,1.9,2.1,3,2.6c2.7,1.3,6.1-0.1,8.5-1c2.6-5.6,5.5-10.8,9-16 c1-1.5,2.8-3.5,2.4-5.9c-0.4-2.6-4-3.7-7.1-4.3c-3.2-0.7-6.9-0.9-10.4-1c-7.7-0.1-15.1-0.5-21.6-1.1c-7.2-0.6-13.9-1.3-19.1-3.6 c-5.1-2.3-9.1-6.3-11.3-11.4c-4.7-11.4-1.3-28.6,2.5-38.4c3.2-8.2,8.1-14.3,14.2-19.9c1.8-1.7,4.6-3.9,5-6.2c0.7-3.9-2.8-7-5.2-8.8 s-5.1-3.4-7.7-4.4c-5.9-2.4-14.2-2.3-20.9-3.2c-3-0.4-6.7-1.1-10.3-1.8c-7.3-1.4-12.8-2.6-18-6.1c-2.1-1.5-5.3-3.9-6.1-5.9 c-0.9-2.3-1-5.8-0.8-8.9c0.1-3,0.8-5.8,1.2-8.4c2.3,1.7,5.2,4.1,8.8,5.9c2.6,1.3,7.5,3.7,11.6,3.1c1.9-0.3,3.1-1.5,4.9-2 c-0.4-1.8,0.2-3.6-0.2-5.4c-0.3-1-1.8-1.7-2.2-2.9c-1.1-3.2-0.2-6.9-0.4-10.9c0.4-0.1,0.8,0.3,1.1,0.5c2.7,1.8,5.9,3.4,9.7,4.4 c4.1,1.1,10,2.1,14.2,0.5c1.9-0.8,2.6-2.3,4-3.8c-0.4-1.4-0.9-2.7-1.2-4.2c-0.8-1.2-2.7-1.3-3.5-2.5s-0.6-2.7-1.1-4.4 c5,2.3,10.6,4,18,4c7.9,11.3,16.9,21.2,26.9,30.7c2.4,2.3,4.9,4.7,7.7,6.7s5.3,3.9,7.9,6.5c2.6,2.6,4.3,4.6,6.7,7.7 c1.8,2.3,4.9,5.8,5.5,8.9c0.6,3-0.7,5.9,0.5,8.2c0.9,1.9,5,3.5,7.3,1.6c3.2-2.7,2.9-12.8,1.6-17.6c-0.5-2-1.8-4-2.9-5.8 c-3.2-5.2-7.1-10.5-10.3-15.6c-2.3-3.7-4.1-7.7-4.3-13c-0.2-5.4,1.3-9.5,3.6-13.7c3.9-7,9.9-13,16-18.6c4.4-4.1,7.9-9.2,9.1-16.8 c0.4-2.5,0.8-5.3,0.6-7.9c-0.4-4.8-3.9-9.3-6.6-12.2c-1.4-1.5-3.2-3.1-4.9-4.6c-1.6-1.4-4-4.2-6.7-4c-3.1,0.3-5.2,4.5-6.4,7.4 c-1.3,3.3-2.1,7.6-1.8,11.9c0.1,1.3,0.6,2.6,0.8,4c0.4,2.5,0.3,5.7,0.2,8.6c-0.1,3.7,0.3,8.1-0.7,10.6s-3.3,5.2-6,5.4 c-0.6-1,0.2-2.4,0.4-3.6c0.4-3.7-1.2-7.6-2.5-10.4c-1.5-3.1-2.8-5.7-4.7-8.2c-1.8-2.3-3.3-5.2-4.4-8.5c-1.1-3.2-2.2-6.9-2.4-10.4 c-0.4-7.9,4.3-17.3,12.2-17.2c1.9,0,3.3,1.1,5.4,0.2c0.3-3-2.5-4.8-3.8-7.6c-2.9-6.1-4.3-17.1,2.5-20.3c1.8-0.8,1.4,1.7,1.6,2.5 c0.9,4.1,4.2,8.6,6.4,11.8c2.4,3.4,5.3,6.9,8.5,9.6s6.6,5.4,9.8,8.3s6.6,5.6,9,9.1c1.7,2.5,2.9,5.6,4,8.6c1.1,3.2,2,6.8,2.3,10.3 c0.8,8.2-1.9,14.4-4.8,20.2c-1.5,2.9-2.9,5.4-4.8,7.8c-3.6,4.6-8,9-12.2,13c-3.3,3-7.5,5.6-7.9,11.3c-0.4,5.5,1.5,10.1,3,14 c0.5,1.3,0.7,3.3,2.2,3.5c1.9,0.3,3.6-3.2,4.8-4.6c1.5-1.6,5-4.6,8.4-3.6c1.2,0.3,2.1,1.6,3.1,2.9c1,1.2,1.8,2,2.8,3.2 C709.9,188.6,712.2,191.4,710.3,194.5z"></path> <path class="st0" d="M233.9,180.1c0.1,0,0.1,0,0.1,0.1c-0.2,19.2-0.1,38.2-0.1,57.5c0,6.3-0.3,12.5,0.4,18.5 c2.4,22.2,10.5,41.4,20.9,55.8c16.1,22.3,40.2,36.6,77.2,37.8c12.3,0.4,25.1,0,38.3,0c12.6,0,25.5-0.1,38.3-0.1 c12.9,0,24.7-0.8,34.9-3.4c20.5-5.1,35.6-14.9,47.6-28.9c11.8-13.6,20.2-31,24.5-52.2c1.1-5.5,2-11.1,2-17.2c0-18.9,0-37.9-0.1-57.2 c0.1-0.5,0.7,0.3,0.8,0.5c2,2.3,4.6,4.8,7.8,5.9c1.7,0.1,3-0.2,4.7-0.1c1.4-2.5,2.5-5.6,4.2-8c0.5-0.7,0.9-1.8,1.8-1.9 c-0.1,14.3-0.2,28.3-0.2,42.4c0,14.2,0.2,28-1.8,40.7c-7.8,48.7-37.4,76.5-79.6,90.6c-10.6,3.6-22.4,6.1-35.5,7.1 c-6.8,0.5-13.8,0.2-21,0.2c-13.9,0-28.5,0-42.6,0c-7.1,0-14.3,0.3-21.2,0c-13.3-0.5-25.4-3.2-36.1-6.4 c-21.5-6.4-39.7-16.8-53.6-31.4s-23.8-32.7-28.2-56.9c-2.3-12.4-2.3-26.2-2.3-40.3c0-14-0.2-27.9-0.2-42.2c0.3-0.3,0.6,0.9,0.8,1.4 c0.3,0.6,0.6,1.4,1.1,1.6c1.1,0.4,4.2,0.1,5.2-0.2C226.7,192,232.1,184.9,233.9,180.1z"></path> <path class="st1" d="M231.6,322.4c-8,1.1-18.9-0.7-23.5,3.8c1.4,2.2,6.8,3.3,6.7,7.1c-0.1,3.4-5.1,4.4-8.5,5c-1.9,0.4-3.9,0.7-6,0.8 c-2.1,0.1-4.9,0.5-6.2-0.2c-1.1-0.6-1.7-2.5-2.6-4c-1.7-2.6-5.2-7.4-9.7-5.6c-2.1,0.8-4.1,2.4-6.4,3.6c-2.2,1.1-4.4,2.1-7,3 c-4.8,1.8-11.9,2.8-16.6,0.1c-3-1.7-4.9-7-3.5-13c0.3-1.3,1.7-2.7,0.8-4c-1-1.4-4.4,0.5-5.8,1.1c-1.8,0.8-4.8,2.2-6.6,1.3 c-2.6-1.3-1.7-10.6-1.3-13.7c0.6-4.8,1.8-8.9,4.2-11.4c1.1-1.2,2.3-1.8,3.4-2.8c2-1.8,3.8-3.9,5.4-6.6c0.7-1.1,2-2.7,1.8-4.2 c-0.1-0.6-0.8-1.5-1.3-1.9c-0.7-0.6-1.4-0.5-2.2-1c-1.1-7.2,2.9-8.2,7.3-10.6c1.7-0.9,4.9-2.3,4.9-4.4c0-2.3-4-4.4-5.5-5.3 c-1-0.6-2.3-1.4-3.5-1.9c-1.1-0.5-3.2-0.8-4-1.4c-1.2-1.1-1.5-5.2-1.9-7.2c-1-4.8-2.8-8.9-4.9-13.1c-1-2.1-2.4-4.6-3.7-5.8 c-2.1-1.8-7.6-3.6-7.7-7.4c-0.1-2.5,2.5-4.6,4.2-5.9c5.7-4.2,14.4-6.7,23.5-7.2c11.7-0.6,17.7,2.7,22.2,9.4c4.2,6.2,8,13.4,7.4,24.1 c-0.3,4.5-2.1,8.7-3.4,13.1c-3.1,10.9-5.2,21.7-7.9,32.9c-0.5,2.2-1,4.7-1.7,6.5c-0.9,2.4-3.8,5-3,8c0.3,1.1,2.4,2.7,4.8,2 c0.4-0.1,1.3-1,1.8-1.4c3.8-3.3,8.9-6.5,13.8-8.8c2.7-1.3,5.9-2.4,10.4-2.4c3.8,0,8.9-0.6,12.7,0.1c1.6,0.3,4.3,1.4,4.9,3.4 c0.9,2.9-1.5,5.5-2.8,6.2c-1.1,0.6-3.8,0.5-3.8,2.3c0,1.5,4.5,2.9,5.9,3.6C223.3,312.1,228.8,316.1,231.6,322.4z"></path> <path class="st1" d="M601.7,259.9c-3.7,1.1-7.5,2.9-10.4,5.4c-0.9,0.8-2.2,1.8-2.3,3c-0.1,2.3,2.9,3.5,4.9,4.6 c3.8,2.1,6.2,2.5,7.1,7c0.2,1,0.6,2.9,0,3.7c-0.4,0.5-1.6,0.3-2.4,1.2c-0.3,0.3-0.9,1.1-1,1.7c-0.1,1.3,1.2,3.2,1.8,4.2 c1.6,2.7,3.2,4.6,5.4,6.6c1,0.9,2.3,1.7,3.2,2.8c3.7,4,4.7,11.2,4.4,19.3c-0.1,2.6-0.2,5.4-2.2,6c-1.9,0.6-4.1-0.8-5.9-1.6 c-1.7-0.8-3.5-2-5.8-1.2c-0.8,2,0.5,2.7,0.8,4c0.8,3.2,0.4,8.2-0.8,10.3c-2.9,5-11.2,5.4-17.8,3.2c-2.9-0.9-5.9-2.4-8.2-3.6 c-2.7-1.4-5.6-4.2-8.4-4c-5.6,0.5-6.9,7-10.1,10.1c-6.6,0.3-14.5,0-18.4-2.6c-0.9-0.6-2-1.7-2-3c-0.1-2.1,2.1-3.7,3-4.4 c0.4-0.3,3.5-1.8,3.6-2.5c0.2-1.4-4.8-2.9-6.1-3.1c-5.1-0.7-11.5-0.2-16.8-0.8c-0.2-0.5,0.3-1,0.5-1.4c3.5-6.7,9.6-10.4,16.8-13.8 c1.1-0.5,2.7-1,2.8-1.9c0.1-1.9-2.8-1.8-3.8-2.4c-1.2-0.7-3.3-3.1-2.8-5.9c1-5.1,12.3-4,18.4-3.8c4.1,0.1,7.1,1.3,9.8,2.6 c4.4,2.2,9.4,5.2,13.3,8.5c0.6,0.5,1.2,1.3,1.7,1.4c2.2,0.6,4.2-0.8,4.6-1.8c1.1-3.1-2.1-6.2-2.9-8.3c-0.8-2-1.1-4.5-1.7-6.7 c-2.8-11.1-5-22.9-8.2-33.8c-1.3-4.4-3-8.7-3-13.8c0-9.1,3.4-15.9,7-21.5c2-3.2,3.7-5.5,6.8-7.3c8-4.7,21.8-3,30.8,0.1 c2.8,0.9,4.9,2.1,7.3,3.8c2,1.4,4.9,3.4,4.7,6.5c-0.3,3.9-5.4,5.1-7.7,7.3c-1.4,1.4-2.5,3.6-3.5,5.6c-2,4-4,8.5-4.9,13.3 C603.1,255.2,603,257.7,601.7,259.9z"></path> <path class="st1" d="M426.7,415.9c-2.5-0.6-5.6-1.3-8.2-1c-7.2,0.9-7.2,10.2-7.1,18.6c0.1,5.2-0.2,10.5,0,15.6 c0.1,1.8-0.2,3.9,0.1,5.2c0.2,0.9,1.7,2.1,2.6,2.9c3.4,2.6,6.8,4,11.5,5.3c5.6,1.5,14.8,2.3,18.5-1.3c2.2-2.2,2-6.5,2-10.7 c0-9.8,0.6-17.7,0.6-27.4C440.9,420.6,433.9,417.6,426.7,415.9z"></path> <path class="st1" d="M712.4,400.1c-14.5-6-31-10.4-46.8-14.8c-42.4-11.6-86.5-23.5-131.6-32.5c-2.7-0.5-5.7-1.1-8.8-1.6 c-2.9-0.4-6.3-0.3-9.7-0.2c-6.3,0.1-13.7,0.5-15.4,5.2c-0.5,1.4-0.3,2.9-0.7,4.4c-2.5,9.3-5.2,18.8-7.8,28.1 c-0.2,0.7-0.1,1.2-0.6,1.7c-19.3-1.9-39.6-3-60.2-4.1c-10.2-0.5-20.6-1.1-31-1.2s-20.9-0.8-31.3-0.8c-21.3,0-42.8-0.6-63.7-0.6 c-15.9,0-31.4,0.8-46.1,2.2c-5,0.5-10.1,1.2-14.9,1.4c-3.1-9.6-5.7-18.6-8.8-28.3c-0.4-1.4-0.7-2.9-1.3-4c-2.4-4-8.9-5.7-14.6-6.5 c-6.4-0.9-13.7-0.8-19.7,0c-12,1.5-23.9,4.1-35.8,6.6c-23.4,4.9-46.3,10.1-68.5,16.1c-10.9,2.9-21.5,6.7-32,10.2 c-21.3,7-42.1,14.2-63.1,21.4c0,0.1,0,0.2,0,0.2c17,12.7,34.2,25.6,51.1,38.3c1.1,0.8,2.3,1.7,3.2,2.8c-5,16.1-10.2,33.5-15.2,50 c-0.6,2.1-2.5,6.9-0.4,8c2.3,0,4.5-1,6.7-1.8c13.2-4.6,26.3-8.9,39.6-13.6c2.2-0.8,4.7-2.1,6.8-2c5.3,0.3,6.2,10,7.3,15 c0.5,2.1,1.1,3.7,1.9,5.3c4.8,9.5,12.2,16.9,25.9,16.9c13.8,0,24.2-4.6,35.5-7.3c7.8-1.9,16.1-2.9,24.4-4.2 c8.3-1.3,16.6-2.6,24.8-3.7c16.5-2.3,33.4-5,50-7.2c17.2-2.3,35-3.6,53-4.1c9.2-0.3,18.6-0.3,28-0.6c9.3-0.3,18.7,0.4,28.2,0.4 c9.3,0,18.5,0.5,27.5,1.1c27.2,1.6,53.2,4.1,78.6,7.2c0.9-2.8,1.4-5.7,2.5-8.5c0.6-1.4,1.1-2.7,1.3-4.2c1.8-14.8,3.9-29.4,5.8-44.3 c0.7-5.5,2-15.6-0.5-20c-0.6-1.1-1.5-2.1-2.3-3.1c-2.2-3.2-4.1-6.9-5.8-10.6c4.8-1.7,9.4-3.7,14.2-5.5c1.2,0.7,2,1.8,3,2.9 c2.9,3.2,5.9,6.5,9.1,9.4c4.6-1.8,8.1-3.2,12.5-4.9c1.4-0.5,3-1.5,4.3-1.6s3.2,0.5,4.7,0.8c4.8,1.2,8.5,2.8,12.1,4.7 c3.4,1.8,10.7,5.3,12.1,10.2c0.6,2,0,5.5-0.4,7.6c-0.8,5.2-1.7,9.5-2.8,14.3c-0.4,1.7-1,3.7-1,5.2c0,0.7,0.2,1.3,0,1.9 c-1.3,4.4-10,3.2-15.7,3.4c-4.5,0.2-9.3,0.4-12.4,1.8c-1.7,0.8-2.6,1.7-3.5,3.5c-0.7,1.4-2.8,5.9-0.5,7.1c3,1.5,5.5-2.5,8.6-1.8 c1.9,0.4,3.1,3.2,3.2,5.8c0.1,2.8-1.3,5.1-3.5,5.6s-5-0.3-7-1c-1.9-0.7-3.6-1.9-4.8-3.4c-2.5-3.1-2.6-8.9-0.5-12.8 c4-7.3,13.1-8.4,20.4-12.5c0.5-3.3-0.4-6.5,0.4-9.6c0.3-1.2,1.8-2.2,2.3-3.7c2-6-5.3-9.6-9-11.4c-4.7-2.3-9.2-4.5-14.8-4 c-5,0.5-5.1,4.4-5.5,9.4c-0.3,3.6-0.7,7.6-1.1,10.9c-0.9,7.3-2.3,14.2-2.9,21.1c-0.5,7-1.8,14.8-3.8,20.2c-1.2,3.1-2.5,5.4-4.9,7.1 c-2.3,1.6-5.5,2.4-8.2,4c-1.9,1.2-2.8,3.4-2.5,6.6c20.5,2.9,39.6,5,58.8,8.3c3.7,0.6,7.3,1.6,11,2.4c14.9,3.4,29.1,6.3,45.2,8.4 c7.4,1,17,2.6,24.6,1.1c11-2.3,16.4-10.6,18.5-21.8c0.6-3.5,0.5-8.3,2.5-10.9c1.4-1.9,3.4-1.3,5.9-0.5c17.6,5.8,35.6,12.1,52.7,17.8 c-7-18.5-14.2-36.9-21.2-55.3c7.9-7.7,15.7-15.5,23.8-23s15.7-15.5,24-22.8c0-0.2,0-0.3,0-0.5C723.5,404.7,717.1,402,712.4,400.1z M227.9,361.4c0.2,2-0.8,5-2.8,5.5c-0.8-3.8-2-7.2-2.8-11C224.6,356.7,227.6,358.4,227.9,361.4z M217.1,354.7 c1.3,4.8,2.6,9.7,3.8,14.5c-1.2,0.2-2.1,0.9-3.4,1.1c-1.5-5.3-2.8-10.7-4.3-15.8C214.4,354.2,215.9,354.6,217.1,354.7z M208.4,354.2 c1.4,6,3.2,11.5,4.6,17.5c-1.1,0.2-2.1,0.4-3,0.7c-1.9-5.9-3.6-12.1-5.3-18.2C206,354.2,207.2,354.2,208.4,354.2z M199.7,354.5 c2.1,6,3.7,12.6,5.5,19c-1.2,0.1-2.3,0.4-3.5,0.6c-1.9-6.4-3.6-12.9-5.5-19.2C197.2,354.5,198.6,354.7,199.7,354.5z M191.3,355.2 c2.3,6.1,3.7,13,5.8,19.3c-0.9,0.4-2.4,0.3-3.6,0.5c-1.9-6.4-3.7-12.9-5.5-19.3C188.9,355.4,190.3,355.5,191.3,355.2z M183,356.3 c2.2,6.1,3.7,12.8,5.6,19.1c-1.4-0.1-2.4,0.2-3.7,0.1c-1.7-6.3-3.6-12.4-5.3-18.7C180.7,356.5,181.9,356.4,183,356.3z M174.6,357.5 c0.9,0.3,1.3,3.4,1.6,4.4c1.3,4.5,2.9,9.8,4,13.8c-1.2,0-2.5,0-3.7,0c-1.5-5.9-3.6-12-4.9-17.8C172.3,358.3,173.7,357.2,174.6,357.5 z M166.7,358.8c1.7,5.5,3.2,11.4,4.9,16.9c-1,0.3-2.5,0-3.7,0.1c-1.6-5.4-3.1-11-4.7-16.4C164.4,359.3,165.6,359.1,166.7,358.8z M158.4,360.4c1.8,4.9,3,10.3,4.6,15.5c-1.2,0-2.5,0-3.7,0c-1.4-5-2.8-9.9-4.2-14.9C156.3,360.9,157.3,360.5,158.4,360.4z M150.4,361.9c1.5,4.5,2.6,9.3,4.1,13.8c-1,0.3-2.5,0-3.7,0.1c-1.4-4.3-2.4-8.8-3.8-13.1C147.9,362.4,149.3,362.3,150.4,361.9z M142.1,363.7c0.7,0.7,0.8,1.9,1.1,2.9c0.8,3,1.8,6.2,2.6,9.2c-1.3,0-2.6-0.1-3.7,0.1c-1-3.9-2.2-7.7-3.2-11.5 C139.9,364.2,141,364,142.1,363.7z M134,365.5c1.4,3.2,2.2,7.2,3.2,10.8c-1.1,0.2-2.3,0.3-3.6,0.4c-0.9-3.6-2-6.9-2.9-10.4 C131.9,366,132.9,365.7,134,365.5z M126,367.3c1.3,3.1,2.1,6.7,3,10.1c-1.2,0.1-2.3,0.3-3.5,0.5c-1-3.2-1.9-6.4-2.8-9.7 C123.9,367.9,125,367.7,126,367.3z M118,369.4c1.3,2.7,1.8,6.2,2.9,9.1c-0.9,0.6-2.5,0.4-3.5,0.8c-1-3-1.8-6.1-2.6-9.1 C115.8,369.9,116.9,369.6,118,369.4z M110.2,371.4c0.9,2.8,1.6,5.9,2.5,8.6c-1,0.4-2.3,0.6-3.6,0.8c-0.7-2.9-1.5-5.7-2.4-8.5 C107.7,371.9,109,371.7,110.2,371.4z M102.1,373.6c0.9,2.8,1.7,5.5,2.4,8.5c-1.2,0.2-2.3,0.4-3.2,0.8c-1.1-2.5-1.6-5.6-2.5-8.2 C99.7,374.2,101.1,374.1,102.1,373.6z M94.1,376.1c1.2,2.4,1.7,5.4,2.5,8.2c-1.2,0.2-2.1,0.8-3.4,1c-0.5-2.9-1.3-5.5-1.9-8.3 C92.3,376.7,93.2,376.4,94.1,376.1z M86.8,378.4c0.7,2.9,1.5,5.7,2,8.6c-1.3,0.2-2,0.9-3.2,1.2c-0.7-3-1.5-5.8-2.2-8.9 C84.5,379,85.6,378.6,86.8,378.4z M78.8,380.8c0.8,3.3,1.7,6.4,2.4,9.7c-1,0.6-2.1,1.2-3,1.9c-1.1-3.3-1.8-7.1-2.9-10.4 C76.3,381.3,77.7,381.1,78.8,380.8z M70.8,383.2c1.2,4.1,2.2,8.4,3.4,12.6c-0.6,1.1-1.4,1.9-1.9,3.1c-1.7-4.8-3.2-9.7-4.7-14.6 C68.6,383.9,69.8,383.6,70.8,383.2z M13.9,407.2c-0.2-1.5-0.8-2.7-1-4.3c1.2-0.3,2.2-0.6,3.2-1.1c0.8,2.7,1.4,5.6,2.2,8.4 C16.9,409.2,15.5,408.1,13.9,407.2z M24.5,414.4c-1.1-4.8-2.6-9.3-3.7-14c1.2-0.3,2.2-0.8,3.4-1.1c1.9,6.2,3.7,12.6,5.6,18.7 C28.2,417.1,26.2,415.5,24.5,414.4z M35.9,422.3c-2.5-8.2-4.9-16.4-7.3-24.6c1.2-0.3,2.2-0.6,3.2-1.1c3.2,9.4,5.7,19.3,8.8,28.8 C39.1,424.7,37.4,423.3,35.9,422.3z M50.8,434.2c-0.9-0.8-3.3-2.4-3.8-3.4c-0.6-1.1-0.9-3.1-1.3-4.6c-3-10.1-6.3-21.3-9.2-31.2 c1.2-0.2,2.1-0.7,3.2-1.1c4.4,13.4,8.1,27.4,12.4,40.9C51.5,435.1,51.1,434.5,50.8,434.2z M47.8,491.6c-2-2.2,0.4-5.1,0.7-7.8 c1,2.1,1.7,4.5,2.6,6.6C50.2,491,48.7,491.1,47.8,491.6z M55.7,489.1c-1.5-4.8-2.9-9.7-4.4-14.4c0.7-2,1.2-4.2,1.9-6.2 c2.1,6.4,3.9,13.1,6,19.6C58.1,488.5,56.9,488.8,55.7,489.1z M63.5,486.7c-2.2-7.2-4.6-15.1-7-22.7c-0.3-1.1-1-2.3-1.1-3.1 c-0.1-2,1.6-3.9,1.7-5.9c3.5,10,6.6,20.5,9.8,30.7C65.8,486.1,64.8,486.5,63.5,486.7z M71.4,484.3c-3.8-12.8-7.8-25.4-11.6-38.2 c0.4-1,0.7-2,1-3.1c-0.2-1.1-1.8-1.4-2.3-2.4c-0.4-0.8-0.5-2.1-0.8-3.1c-4.4-14.7-9.2-30.6-13.4-45.1c1.1-0.3,2.4-1,3.4-1.1 c9.2,30.6,18.3,61.3,27.4,92C73.7,483.7,72.7,484.2,71.4,484.3z M79.3,482c-9-30.9-18.3-61.5-27.4-92.4c1-0.5,2.2-0.8,3.2-1.2 c9.4,30.6,18.3,61.7,27.6,92.4C81.9,481.5,80.4,481.6,79.3,482z M87.2,479.6c-9.1-31-18.4-61.8-27.5-92.8c1.1-0.3,2.4-1,3.4-1.1 c2.3,7,4.4,14,6.7,21c0.8,2.3,1.7,4.7,2.3,7c0.7,2.9,1.1,5.8,1.8,8.6c2.1,8.3,4.4,16.2,7.2,24c1.8,5.2,3.7,10.3,5.2,15.7 c1.4,5.4,2.9,10.8,4.4,16.3C89.8,479.1,88.4,479.2,87.2,479.6z M97,413.3c-1.6,0.2-3.4,0-5.4,0.1c-5.8,0.4-14.5,1.1-15.6-4 c-0.8-3.5,1.5-7.1,3.1-9.1c5.4-6.7,15.4-10.3,24.5-12.8c19.7-5.4,43-6.9,67.2-7.6c8.1-0.2,16.2-0.7,24.1-0.7c4.2,0,8.1,0.2,11.8-0.2 c11.3-1.3,19.3-5.7,24.8-13c1.8,7.3,3.4,14.8,5.2,22.2c-41.9,5.7-84.3,11.8-122.9,21.4C108.4,410.9,102.6,412.7,97,413.3z M189.2,485.2c-0.7,0.8-1.4,2-2,2.2c-2.1,0.6-4.8-0.4-6.2-1.1c-3.7-1.8-5.4-4.6-8.3-7.3c-1.9-1.8-6.2-4.2-8.2-0.8 c-0.9,1.5-1.1,3.7-1.7,5.4c-1.8,4.8-4.1,10.2-7.9,13.1c-2.5,1.9-5.6,1.8-9.6,1c-6.5-1.3-12.2-3.8-14.5-9.2c-1-2.3-1.4-5.2-2-7.9 c-1.2-5.5-2.1-11.1-3-16.9c-0.5-2.9-0.6-6-1.3-8.6c-0.8-2.9-2.7-5.8-4.6-7.6c-2.4-2.3-6-2.6-8.5-5c3-4.8,6.2-9.9,9.4-14.2 c4.1,0.9,6.9,1.7,10.3,3c2.5,1,6.6,2.6,7.8,5.4c1,2.4,1.2,7.1,1.6,10.2c0.8,7.4,1.4,13.6,2.8,20.6c0.6,3,1.1,7.4,2.8,8.9 c1,0.9,3.7,1.5,5.5,2c3,0.8,6.5,1.6,9,0.4c1.8-0.9,3.6-5,4.4-7.2c1.1-2.7,1.9-6.2,1.9-9.7c0-4.3-1-8.5-1.7-13.1 c-0.4-3-0.9-6.4-1.2-9.8c-0.1-1.2-0.1-2.6-0.4-3.2c-0.3-0.8-2.1-2-3.1-2.6c-2-1.3-4.1-2-6.7-2.5c0.8-2.8,3-4.4,4.8-6.2 c1.8-1.8,3.7-3.6,5.6-5.3c4.1-0.8,11.2,1.1,12.7,4.4c0.6,1.3,0.8,3.3,1.1,5.2c1.9,10.4,3.9,21,5.2,31.9c0.4,3.1,0.2,6,1.3,8.2 c2.5,4.7,7.5,5.9,10.8,10C193.3,480.6,191.4,482.7,189.2,485.2z M280.6,465.8c-2,2.5-3.9,5.1-6,7.8c-0.7,0.8-1.7,2.5-2.5,2.9 c-1.1,0.6-4.1,0.3-5.5-0.2c-3.7-1.4-7.3-4.5-10.4-7.1c-0.9-0.8-2.8-2-3-2.8c-0.4-1.1-0.1-3.1-0.2-4.7c-0.5-7.6-1.1-14.9-1.7-22.7 c-0.5-7.8-0.8-15.6-7.2-17.5c-2.2-0.7-5.2-0.8-8.2-1c-8.9-0.6-11.4,3.8-11,12.8c0.3,8.4,0.4,16.2,1,24.1c0.1,1.5-0.1,3.2,0.2,4.7 s1.8,3.1,2.8,4.6c1.9,2.9,3.6,4.8,8,5.3c0.2,0.7-0.7,1-1.1,1.4c-2.3,2.4-4.7,4.9-7.1,7.6c-1.4,1.6-2.6,3.3-5.2,3.4 c-2.8,0.1-4.9-1.4-7.1-2.8c-2.2-1.3-4.3-2.5-5.8-4c-0.8-12.5-1.6-26.7-2.4-40c-0.1-1.8,0.1-4.2-0.4-5.6c-0.4-1.4-2.7-2.8-4-3.8 c-2.3-1.9-4-3.3-7.2-4.1c0.7-3,2.9-5.2,4.9-7.6c0.8-0.9,1.9-2,3-3.2c0.7-0.8,2.1-3,3-3.1c1.4-0.3,4,1.2,5.2,1.8 c2.6,1.5,7.4,7.1,12.2,5.9c1.3-0.3,2.4-1.9,3.4-2.9c2.1-2.1,4-4,6.1-6.1c0.9-0.9,2.3-2.5,3.2-2.9c1.5-0.6,3.4-0.5,5.3-0.6 c8.7-0.6,15.3,2,21.5,5.8c1.2,11.5,2.4,25.9,3.6,38.6c0.5,4.7,1.3,8.6,4.2,10.7c2.6,1.9,5.7,2.6,9.1,3.8 C281.6,465,280.9,465.4,280.6,465.8z M309.5,476.2c-0.3,0.2-1.4,1.2-1.4,1.2c-0.3,0-2.9-2.4-3.2-2.6c-3.1-2.6-6.3-5.4-9.2-8 c-0.1-12.2-1.1-25.5-1.2-38.3c0-1.8,0.1-3.8-0.1-5.4c-0.3-1.7-1.8-4-3-5.4c-1.6-1.9-5.7-3.2-5.4-6.6c0.1-1.8,3.2-3.9,4.9-5.3 c1-0.8,2.1-1.5,3-2.2c1.7-1.3,3.4-3.2,6.6-2.2c1.9,0.6,3.5,2.4,5,3.6c1.7,1.3,3.3,2.5,4.7,3.8c0,13.3,0.2,27.8,0.2,41.8 c0,2-0.3,4.4,0.1,5.9c0.3,1.1,1.4,1.9,2.3,2.9c2.4,2.8,4.6,5.5,6.8,8.3C316.3,470.4,313,473.2,309.5,476.2z M383.3,418.6 c-0.9,4.2-4.8,8.2-7.4,10.9c-3.2,3.3-6.4,6.1-10.1,8.3c-2.1-0.1-4.4,0.2-5.2-1.2c-0.8-1.3,0-3.8,1-4.7c1.9,0.1,1.8,1.9,3.5,2 c1.1,0.1,2.1-0.8,2.9-1.2c1.2-0.7,2.2-1.2,2.4-2.6c0.5-3.5-3.6-7.2-5.4-9c-2.8-2.8-5.4-5-7.4-6.8c-2.5,0.9-6.3,1.7-7.2,4.8 c-0.7,2.5-0.1,6.4-0.1,9.6c0,6.6-0.2,12.5,0.1,19.1c0.1,3.2-0.6,7.2,0,9.6c0.3,1.4,3.1,3.3,4.1,4.3c1.5,1.6,2.7,3.1,4.1,4.2 c-3.7,3.2-7.7,6.2-11.3,9.5c-4.3-3.1-8.6-6.3-13-9.4c3.4-0.8,2.5-6.4,2.5-11.2c0-8.1,0.1-16.3,0.1-24.8c0-1.8,0.3-3.9,0-4.9 c-0.2-0.8-2.1-2-2.9-2.6c-2.1-1.9-3.6-3.2-5.9-5.2c-1-0.9-2.6-1.9-2.8-2.6c-0.3-1.1,0.4-3,1-3.8c1.2-1.8,3.4-3.1,5.5-4.8 c0.9-0.7,1.7-1.6,2.8-2.4c0.5-0.4,2.5-2.3,2.8-2.3c0.5,0,2,2.1,2.6,2.6c2.2,2.1,3.3,3.1,5.3,5c1.2,1.2,1.9,2.6,3.8,2.6 c1.8,0.1,3.2-1.2,4.6-2.2c4.1-2.9,8.1-5.7,12.1-8.5c0.1,0,0.1,0,0.1,0.1c3.5,2.2,7,4.8,10.4,7.2 C379.6,410.5,384.5,412.5,383.3,418.6z M464.3,425.2c-0.2,9.7-0.8,17.1-1.7,26.4c-0.1,1.6-0.1,4-0.5,5c-0.3,0.8-2.4,1.8-3.5,2.5 c-5.8,4.1-11.2,8.9-17.3,12.6c-2.4,1.5-4.9,3.3-7.6,4.3c-7.2,2.8-16.1,1.1-22.1-1.3c-3.1-1.3-6-2.8-8.8-4.3s-5.7-3.1-7.3-5.8 c0.2-12.6,0-23.5,1.1-35.5c0.3-3.2,0.4-8.3,1.9-10.2c0.6-0.7,2.4-1.3,3.7-2c7.6-4,14.5-8.2,21.4-12.8c1-0.7,2.9-2.2,4.1-2.3 c3.6-0.1,7.1,1.1,10.3,1.9c6.4,1.7,12.2,3.6,18.2,6.2c2.3,1,6.6,2.8,7.4,4.7C464.8,417,464.4,421.9,464.3,425.2z M658.3,390.2 c1.2,0.2,2.3,0.6,3.4,1c-0.8,3.1-1.5,6.2-2.3,9.4c-0.9-0.5-1.7-1.2-2.5-1.8C657.3,395.8,657.9,393.2,658.3,390.2z M650.5,388 c1.2,0.2,2.1,0.6,3.2,0.8c-0.3,2.7-0.9,5.2-1.3,7.8c-1.1-0.3-2-0.9-3.2-1.1C649.7,393.1,650.1,390.5,650.5,388z M642.7,385.7 c1.2,0.2,2,0.7,3.2,0.8c-0.4,2.6-0.8,5.1-1.3,7.6c-1.2-0.2-2.2-0.5-3.4-0.7C641.6,390.7,642.3,388.3,642.7,385.7z M634.7,383.3 c1.1,0.4,2.4,0.7,3.5,1.1c-0.5,2.7-1.1,5.4-1.6,8.2c-1.1-0.3-2.4-0.4-3.6-0.6C633.6,389.1,634.2,386.2,634.7,383.3z M626.6,381 c1.2,0.2,2.3,0.7,3.5,1c-0.5,3.2-1.2,6.2-1.8,9.4c-1.3,0-2.3-0.3-3.6-0.2C625.3,387.7,626.1,384.4,626.6,381z M618.6,378.7 c1.2,0.3,2.3,0.6,3.5,1c-0.6,3.7-1.5,7.2-2,10.9c-1.3,0-2.5-0.1-3.7-0.2C617.1,386.5,617.9,382.7,618.6,378.7z M610.6,376.6 c1.3,0.2,2.2,0.6,3.5,0.8c-0.7,4.3-1.7,8.4-2.4,12.7c-1.2,0-2.4,0-3.6,0C608.6,385.8,609.8,381.1,610.6,376.6z M602.6,374.4 c1.1,0.3,2.2,0.6,3.4,0.8c-0.9,5-1.9,9.9-2.9,14.8c-1.2,0-2.3,0-3.5,0C600.7,384.8,601.6,379.6,602.6,374.4z M594.6,372.4 c1.1,0.3,2.2,0.6,3.5,0.8c-1.2,5.5-2.1,11.2-3.2,16.7c-1,0.2-2.4,0.1-3.6,0.1C592.3,384,593.5,378.2,594.6,372.4z M586.6,370.4 c1.2,0.2,2.3,0.5,3.4,0.8c-1,6.3-2.4,12.3-3.5,18.5c-1.2,0-2.3-0.2-3.5-0.4C584.1,383,585.4,376.8,586.6,370.4z M578.5,368.5 c1.1,0.3,2.3,0.5,3.5,0.8c-1.3,6.4-2.5,12.8-3.7,19.3c-1.3-0.1-2.4-0.4-3.6-0.5C575.9,381.5,577.2,375.1,578.5,368.5z M570.4,366.7 c1.2,0.2,2.3,0.5,3.5,0.7c-1.2,6.7-2.6,13.2-3.8,19.9c-1.4-0.2-2.8-0.4-4.1-0.7C567.4,380,569,373.4,570.4,366.7z M565.8,365.8 c-1.4,6.7-3.1,13.2-4.4,20c-1.3-0.1-2.4-0.4-3.6-0.6c1.6-6.7,2.9-13.7,4.7-20.2C563.6,365.3,564.7,365.5,565.8,365.8z M557.8,364.1 c-1.6,6.7-3.1,13.4-4.6,20.3c-1.2-0.2-2.3-0.5-3.6-0.6c1.5-6.8,3.1-13.5,4.6-20.4C555.3,363.6,556.6,363.8,557.8,364.1z M549.6,362.5c-1.5,6.8-3.1,13.5-4.6,20.4c-1.2-0.3-2.4-0.5-3.7-0.6c1.6-6.7,3-13.7,4.7-20.4C547.1,362.2,548.3,362.4,549.6,362.5z M537.5,360.8c1.3,0.1,2.5,0.3,3.8,0.4c-1.5,6.8-3.1,13.5-4.6,20.3c-1.3-0.2-2.5-0.5-3.7-0.7C534.6,374.2,535.8,367.3,537.5,360.8z M529.2,360c1.1,0.1,2.3,0.3,3.4,0.5c-1.2,6.4-2.7,12.5-4,19c-1.3-0.4-2.4-0.9-3.6-1.3C526.4,372,527.5,365.8,529.2,360z M521.2,358.4c1,0.2,2.1,0.5,3.2,0.6c-1.2,5.7-2.5,11.1-3.7,16.8c-1.2-0.4-1.9-1.3-3-1.8C518.8,368.8,520.1,363.7,521.2,358.4z M512.6,358c1.3-0.2,2.5-0.3,3.8-0.1c-0.8,4.3-2,8.4-2.8,12.7c-1.8-1-2.5-3.1-3.4-5C511.1,363,511.9,360.5,512.6,358z M616.6,487.7 c-3.8,0.6-7.5,0.5-11.9,0.7c-5.7,0.3-11.6,2.5-16.8,3.8c-5.4,1.4-11.5,3-18.1,2.5c-6.8-0.5-11.4-6.9-12.8-13.2 c-0.6-2.5-0.7-5.8-0.6-9c0.1-3.3,0-7.2,1.2-9.6c2.9-5.7,11.8-6,18.6-8.5c2.2-0.8,4.9-1.8,7.9-2.8c2.3-0.7,7.1-1.1,7.3-3.2 c0.1-1.3-1.7-2.9-2.8-3.7c-2.8-2-5.2-3.2-7.9-5c-2.3-1.5-4.9-3.2-8.9-2.8c-2.9,0.4-5.7,1.4-7.9,2.6c-1.6,0.9-2.9,2-4.2,2.9 c-1.2-5,2.5-6.9,6.1-8.5c4.4-1.9,9-3.6,13.7-5c2.5-0.8,4.9-1.8,7.1-2.3c1.6-0.4,3.5,0.1,5,0.7c4.1,1.8,7.8,5.7,11,8.9 c8.4,8.2,18.3,15.3,20.4,29.4c0.5,3.1,0,7,0.5,10.3c0.5,3.7,2.5,6.9,4,10C623.7,486.4,620.2,487.1,616.6,487.7z M616.3,413.4 c-6.3-1.8-12.6-3.3-19-4.8s-12.8-3.2-19.2-4.4c-7-1.4-14.1-1.9-20.9-2.9c-6.8-1-13.1-2.8-19.4-4.2c-13.2-2.9-26.6-4.6-41.3-6.1 c2.1-8,4.3-15.9,6.5-23.9c0.1,0,0.1,0,0.1,0.1c5.7,9.2,16.5,14.2,28.3,17.3c6.1,1.6,12.4,2.5,18.7,4.1c12.1,3,24.4,5.8,37.8,7.8 c6.6,1,13.7,2.1,20.9,1.9c7.5-0.2,15.1-0.4,22,0.4c3.3,0.4,6.5,1,9.6,1.8s6.2,1.4,8.9,2.4c4.2,1.6,10,7.5,7.1,13.4 c-1.1,2.3-5.9,2.6-10,2.6C634.6,418.9,625.4,416,616.3,413.4z M645.1,484.3c1.2-8.4,4.5-15,6.8-22.4c3.6-11.5,7.2-23.4,9.7-35.9 c1-4.9,2-9.6,1.8-15.4c-0.1-1.6-0.6-3.3-0.6-5c0-1.8,1.1-4.5,1.6-6.5c0.6-2.2,1.2-4.5,1.8-6.6c1.1,0.4,2.3,0.7,3.4,1.1 c-1.7,7.7-3.4,15.4-5.2,23c-0.9,3.9-1.4,7.9-2.3,11.8c-0.8,3.8-1.8,7.5-2.8,11.3c-4.1,15.1-6.8,30.5-10.4,45.8 C647.5,485.3,646.5,484.6,645.1,484.3z M653.3,487.2c7-30.6,13.8-61.5,20.9-92.2c1.2,0.3,2.2,0.8,3.4,1.1 c-6.9,30.8-13.9,61.4-20.8,92.3C655.6,488,654.5,487.6,653.3,487.2z M661.2,490.1c2.6-12.3,5.6-24.4,8.2-36.7 c0.9,1.8,1.6,3.8,2.5,5.5c-2.5,10.7-4.9,21.5-7.3,32.3C663.3,490.9,662.4,490.3,661.2,490.1z M669,492.8c2-8.9,4-17.7,6-26.6 c0.9,1.8,1.6,3.8,2.5,5.5c-1.7,7.4-3.4,14.7-5,22.2C671.1,493.7,670.2,493.1,669,492.8z M686.5,492.5c0.8,2.3,3,4.4,1.7,7.2 c-1.1-0.4-2.2-0.8-3.4-1.2C685.3,496.4,685.9,494.5,686.5,492.5z M680.6,479c0.3,1.4,2.3,3.9,2.4,5.5c0.1,0.9-0.5,2-0.7,3.1 c-0.7,3-1.4,6.3-2,9.1c-1.2-0.3-2.3-0.8-3.4-1.2C678.1,490,679.4,484.5,680.6,479z M675.6,442.1c-0.5,2-0.6,4.4-1.3,6.1 c-0.9,2-3.5,2.9-4.7,4.8c3.9-18.2,8.3-36.9,12.4-55.3c1.1,0.5,2.4,0.7,3.4,1.3C682.3,412.8,678.8,427.9,675.6,442.1z M685.1,437.9 c-0.9,2-3.6,3-4.7,4.8c2.9-13.8,6.4-28,9.4-42.1c1.3,0.3,2.3,0.8,3.5,1.2c-2.2,10-4.9,21.2-7.2,31.6 C685.7,434.9,685.6,436.6,685.1,437.9z M697.2,421.4c-0.4,1.9-0.5,4.1-1.2,5.6c-0.4,1-1.6,1.8-2.4,2.6c-0.8,0.8-1.5,1.8-2.4,2.3 c2.2-9.5,4.3-19.1,6.5-28.6c1.1,0.4,2.3,0.9,3.4,1.3C699.9,409.9,698.4,416,697.2,421.4z M707,415.9c-1.5,1.6-3.4,3.5-4.8,4.8 c1-4.8,2.2-9.3,3.1-14.2c1.3,0.2,2.1,0.9,3.4,1.2C708.3,410.7,707.5,413.1,707,415.9z"></path> <path class="st1" d="M592.6,452.5c5.7-0.9,8.9,4.7,10.6,7.8c1.9,3.6,3.3,7.4,3.2,11.8c0,3-1.2,5.4-2.8,7.6c-3.6,4.7-11,8.2-18.2,7.7 c-6.8-0.5-10.7-6.5-11.4-13.6c-0.8-8,3.7-13,8.4-16.3c2.8-2,6-3.9,9.8-4.9C592.3,452.5,592.4,452.5,592.6,452.5z"></path> <path class="st2" d="M253.1,552.8c2.8,0.5,4.7,1.9,6.2,3.7c-1.3,2.6-1.9,5.8-4.6,7c-3.6,0.2-8.8-2.3-6.7-5.6 C248.9,556.5,252.1,554.5,253.1,552.8z"></path> <path class="st0" d="M184,563.4c0.1,0.7-0.1,1.2-0.1,1.8C181.9,565.4,181.3,562.5,184,563.4z"></path> <path class="st0" d="M178.7,567.8c-0.4,1.5-3.1,3.9-4.6,3C173,568,177.4,565.1,178.7,567.8z"></path> <path class="st0" d="M181.9,574.8c-2.1-0.7-0.4-4,0.8-4.6C184.7,571.3,183.7,574.4,181.9,574.8z"></path> <path class="st0" d="M186.8,574.3c-1.4-1.7,1.1-4.1,1.4-2.2C188.5,573.4,187.3,573.5,186.8,574.3z"></path> <path class="st0" d="M568.6,646.4c-5.6-6-12.6-10.3-23.5-10.3c-11.4,0-19.2,4.5-24.7,10.3c1.8-6.6,0.7-14.6-0.1-21 c-2.7-20.1-12.4-34.3-21.6-47.6c-6.5,8.6-12.6,17.8-17.3,28.4c-4.7,10.7-6.9,23.5-7.4,38.2c-5.5-8-16.1-13.8-30-11.9 c-11.7,1.6-19.9,7.8-24.7,17.3c-2.6,5.1-3.9,11.2-3.4,17.4c0.5,6.3,2.6,11.2,5.3,15.7c2.7,4.4,5.5,8.5,8.9,12.1 c3.3,3.6,6.9,7,12.1,8.9c-0.2-6.2,0-11.1,1.1-16c1-4.4,2.7-8.9,6.2-11c2.8-1.6,7.1-1,9.7,0.4c3.1,1.6,6.5,4.9,9.4,8.3 c2.4,2.8,6,7.1,6.4,11.3c0.4,4.1-2.1,5.1-4.9,6c-1.9,0.6-4.9,1.4-5,3c-0.1,1.7,2.4,3,3.8,4c1.6,1.1,3.3,2.2,4.1,3.7 c1.1,2.2,0.7,4.7-0.1,6.4c-2.8,5.3-12.2,6.3-17.9,3.1c-2.2-1.2-3.9-3.5-4.6-5.5c-1.1-3.3,0.3-4.9,1-7.7c-1.2,0-2.1,1.1-2.8,1.9 c-2.1,2.7-3.9,6.8-4.1,11c-0.4,6.8,2.3,11.3,4.8,15.4c2.5,4.1,5.7,7.7,11.2,9c4.5,1,9.5,0.5,14,0.1c1.6-0.1,3.2-0.6,4.6-0.2 c1.6,0.4,3.1,2.8,4.2,4.2c3.8,4.9,7.6,10,11.5,14c0.8-1.8,2.5-3.2,3.8-4.8c2.8-3.2,5.1-6.2,7.7-9.7c1.2-1.5,2.6-4,4.4-4.3 c1.9-0.3,4.2,0.3,6.1,0.5c2.1,0.2,4.3,0.2,6.4,0.2c10.5,0,14.7-5.2,18.5-12.1c1.6-2.9,2.6-5.3,3.1-8.9c0.8-5.6-1-10.8-3.4-14.2 c-0.8-1.1-1.7-2.4-3.2-2.8c0.1,1.8,0.9,2.5,1.2,4.1c0.7,4.3-2.2,7.7-5,9.2c-6.2,3.2-15.7,1.8-18-3.8c-0.9-2.3-0.4-5.4,1-7 c0.9-1.1,2.4-1.7,4-2.8c1.2-0.8,3.3-2.1,3.1-3.7c-0.3-2.6-5.4-2-6.6-4c-1.1-1.8-0.4-4.8,0.4-7c1.9-5.6,5.4-8.6,10.3-11.4 c2.8-1.6,6.9-3.1,10.6-2.9c6.3,0.3,8.5,8.8,9.6,14.3c1.1,5.3,1.5,10.5,1.4,16.8c7.7-3.2,13.5-8.8,18.4-15.4 c4.8-6.4,9.2-13.9,9.2-24.6C577.6,661,574.1,652.4,568.6,646.4z M499.6,594.8c0.1,0,0.1,0,0.1,0.1c4.4,6.4,7.9,14,10.7,22.1 c1.5,4.3,2.3,8.9,2.3,14c0,4.8-0.8,9.9-1.7,14.6c-2.5,13-7.7,25-10.7,38.4c-0.5,2.2-1,4.5-1.6,6.6c-0.5,2-0.8,4.4-2.6,5.5 c-2.5-3.4-3-7.9-3.8-12.1c-0.9-4.4-1.7-8.9-2.6-13.3c-1.8-9-4.1-17.7-4.8-27C483.1,622.6,490.9,607.6,499.6,594.8z M512,701.3 c0,2.4,0,4.8,0,7.2c-10.3,0-20.6,0-31,0c0-2.3,0-4.6,0-6.8c0-0.2,0-0.3,0.1-0.4C491.5,701.3,501.8,701.3,512,701.3z M473,676.8 c-4.5-6-14.6-16.3-25.4-10.4c-3.8,2.1-6.8,6.5-9.1,10.2c-2.6,4.1-4.6,8.4-6,13.3c-4.6-7.7-6.7-19.4-4.3-29.8 c2.2-9.5,8-17.7,18.1-18.5c6.8-0.5,13.5,2.8,17.3,5.9c8.5,6.9,13.6,17.4,17.6,28.7c2,5.7,3.7,11.8,4.8,18.4c-1-0.2-1.3-1.3-1.7-2 c-1.4-2.3-3.3-4.3-5-6.5C477,683.2,475.3,679.9,473,676.8z M479.3,729.1c-3.3,3.4-7,6.7-12.6,7.1c-7.7,0.6-13.7-2.4-15.5-8.5 c4.9,1.5,10.1,3.8,16.2,3.4c8.5-0.6,12.3-9.3,16.7-14c1.1,0,1.9,0.2,3,0.2C485.3,721.5,482.6,725.7,479.3,729.1z M494.3,748.3 c-2.8-3-5.4-6.1-8.2-9.1c2.4-7.4,4.6-15,7-22.4c0.5-0.5,2-0.1,2.9-0.2c-0.6,8.9,1.9,15.7,6,20.3 C499.4,740.6,496.8,744.5,494.3,748.3z M532.4,732.6c0.1,0.6-0.5,1.2-1,1.6c-5.6,5.2-16.3,1.1-20.8-3c-3.7-3.4-6-7.7-6.4-13.6 c0-0.1,0-0.2,0-0.4c0.4,0.1,0.9,0.2,1.4,0.1c1.5,1.8,2.7,3.7,4.2,5.5c1.4,1.7,2.9,3.6,4.6,5C518.8,731.4,525,732.1,532.4,732.6z M559.1,690.4c-1.2-4.4-2.6-8.5-4.7-12.2c-2-3.5-4.2-7.3-7.1-9.8c-4.3-3.7-11.5-3.9-16.9-1.6c-8.7,3.8-14.9,11.2-19,19.4 c-1,2.1-2.1,4.3-3.2,6.4c-1.1,2-2.4,4.1-4.1,5.5c0-3.3,1.1-6.5,2-9.6c1.9-6.2,3.6-11.7,6.5-17c1.4-2.6,2.7-5.2,4.2-7.6 c6.1-9.3,14-18.7,28-19.6c7.2-0.4,12.4,2.7,15.8,6.8c3.5,4.2,5.5,10.2,5.5,17C566.2,677.4,562.9,684.3,559.1,690.4z"></path> <path class="st0" d="M227.3,675.4c-0.1,0.7,0.2,1.4,0.1,1.7c-1.3,0.4-2.7,0.9-4,0.1c-0.4-1.5,0.5-2.5,1.2-3.2 C225.8,674.1,226.6,674.7,227.3,675.4z"></path> <path class="st0" d="M229.6,679.3c0.5,1.4-0.8,1.8-1.2,2.6c-1.2-0.2-1.6-1.1-1.6-2.5C227.4,679,228.8,678.9,229.6,679.3z"></path> <path class="st0" d="M232.7,684.2c-1,0-1.5-0.7-1.2-1.7c0.3-0.2,1.1-0.4,1.3-0.2C232.9,683.1,232.6,683.5,232.7,684.2z"></path> <path class="st0" d="M238.3,684c0.2,0.4,0.4,0.7,0.5,1.2c-0.7,0.2-1.2,0.6-2.3,0.5c0.1-0.6-0.2-0.8-0.1-1.3 C237.1,684.1,237.3,683.8,238.3,684z"></path> <path class="st0" d="M238.3,690.2c0.8,1.1,0.1,2.5-0.4,3.5c-3.8,0.2-6.3,4.1-10.2,1.8c-1.8-6.6-10.5-1.2-15.4-1.8 c-2-3.5,2.1-5.7,4.8-6.7c2.2-0.8,5.1-1.9,8.3-1.2s5.8,3.6,9.1,4.2C235.8,690.2,236.9,690.1,238.3,690.2z"></path> <path class="st0" d="M265.3,689.3c0.8-0.1,1.2,0.3,1.6,0.6c-0.3,0.8-0.7,1.8-1.8,1.4C265.2,690.7,265.2,689.9,265.3,689.3z"></path> <path class="st0" d="M262.3,690.4c-0.2,0.8-0.9,1.2-1.3,1.8C258.3,691.9,261.3,688.4,262.3,690.4z"></path> <path class="st0" d="M269.9,690c0.8,0.9,0.2,1.7-0.5,2.3c-0.6-0.1-0.5-0.4-1.2-0.2C268.4,691,268.6,689.9,269.9,690z"></path> <path class="st0" d="M252,690.6c2.8,0.3,4.3,3.5,2,5.5c-1.4,1.2-4,1.5-6.2,2.3c-1.1,0.4-1.2,0.5-2.8,0.5c-2.7,0-5.4,0.2-6.4-1.4 c-0.2-1.9,1.9-2.3,2.5-3.6c0.5-0.9,0.2-2,1.1-2.9C244.9,689.5,248.9,692.2,252,690.6z"></path> <path class="st0" d="M274.8,692c0.1,0.6,0,0.6,0,1.3c-0.7,0.4-1.5,1-2.4,0.8c-0.2-0.3,0-1.1-0.2-1.3 C272.6,692.1,273.8,691.5,274.8,692z"></path> <path class="st0" d="M277.7,695c0.7-0.1,1.2,0.1,1.6,0.4c0.1,0.5,0.1,1.1,0.1,1.7c-0.7,0-1.1,0.2-1.8,0.1 C277.5,696.3,277.7,695.9,277.7,695z"></path> <path class="st0" d="M281.2,702.1c-0.6,0.1-1.1,0.2-1.8,0.1c-0.2-0.6-0.3-1.3-0.2-2.2C280.2,699.3,281.7,700.6,281.2,702.1z"></path> <path class="st0" d="M285.1,701.6c0.1,0.4,0.4,0.7,0.5,1.2c-0.7,0.4-1.2,1-2.2,0.5c0.1-0.6-0.2-0.9-0.1-1.4 C284,701.7,284.2,701.5,285.1,701.6z"></path> <path class="st1" d="M654.7,81.1c-0.2-1.1-0.7-2-0.8-3.1c-2.9-3.4-4.3-7.9-5.2-12.6c-0.5-2.7-0.6-5.2-1.3-7.6 c-0.6-2.2-1.5-4.2-2.6-6.2c-3.1-5.5-7.4-10.5-12-14.6c-1.5-1.4-3.4-3.1-5-4c-0.8-0.4-1.7-0.3-2.2-1c-1.5-2,0.3-6.4,0.6-7.9 c1.3-6.5-1-13.5-5.3-15.7c0-0.2-0.3,0-0.4,0.1c-0.4,2.8-2.7,5.4-4.4,7.6c-1.8,2.3-3.6,4.7-5.8,6.2c-3.2,2.3-7.8,3.7-11.9,5.2 c-1.2,0.4-3.5,0.9-4.2,1.6c-0.5,0.4-1,2.5-1.4,3.2c-1.2,2.1-4.1,4.6-6,6c-6.1,4.3-12,7.8-18.2,12c-2.9,1.9-4,2.5-3.2,6.8 c0.9,4.9,2.9,6.5,5.9,10c1.9,2.2,3.4,4.4,5.2,5.9c0.9,0.7,2.2,1.6,3.1,1.8c4.8,1.1,6.3-5.1,6.6-9.2c3.5-0.2,5.8,1.5,5.4,5.2 c-0.3,2.5-1.9,6.5-3.4,7.7c-2,1.6-5.2,1.3-7.8,0.5c-1.8-0.6-4-1.7-5.9-1.3c-1,0.2-1.5,1.1-2.5,1.4c-2.5,0.8-5.4,0.2-7.7,0.1 c-2.5-1.7-1.5-6.4-0.6-9c0.4-1.1,1.4-2.8,0.6-3.8c-1-1.4-4.2,0.2-5.4,0.8c-4.4,2.3-7.7,4.5-8.2,10.3c-0.4,4.7,0.8,9.9,4.3,11.2 c2.3,0.8,9.1,1.1,11.3,0c0.7-0.4,1.3-1.4,2-1.9c1.2-0.8,4.8-2.4,6.7-1.8s1.8,5.3,2.8,7.1c3,5.8,12.3,4.8,15-1 c0.4-0.8,0.2-1.5,0.7-2.6c1-2.1,3.9-4.1,6-5.5c0.6-0.4,1.8-1.4,2.6-1.3c1.5,0.1,3,3.2,3.2,5.4c0.4,4.4-1.9,4.5-4.7,5.5 c-4.8,1.7-8.9,4.6-12.8,7.3c-1.5,1-3.2,2.9-4.7,3.4c-1.4,0.4-3.3,0.3-4.9,0.4c-5.1,0.3-10.3,0.5-15.1,0c-6.3-0.6-11.1-2.9-18.4-2.6 c0,7.8,0,15.5,0,23.3c2.4,1.2,6.7,1.7,6.8,4.7c0.1,2.5-2.8,2.9-3.8,5c-1.3,2.4-0.5,4.4-0.6,7.4c-7.5,0-14.6,0.4-21.8,0.4 s-14.4,0.6-22.1,0c-6.4-0.5-11.1-4.2-15.2-7.1c-2-1.4-4.1-3.1-6.5-4.7c-1.8-1.2-5.2-3.7-8-3.1c-0.8,0.2-1.9,1.1-3,1.8 c-2.1,1.2-4.7,2-7,2.8c-2.7,0.8-6.1,1.4-5.8,4.7c0.3,3.7,4.3,1.9,7,3.5c-3.7,3-9.7,2.3-13.2,5.3s-4.9,7.2-6.1,12.5 c4.3,0,9.3,0,13.6,0c1.4,0,3.1-0.4,4,0.6c-0.5,1-1.4,1-2,1.9c-0.8,1.2-0.8,2.7-0.6,4.7c1.4,1.9,3.4,2.8,6.4,3 c4.9,0.3,9.1-0.5,13.8-1.9c4.6-1.4,6.8-4.4,11-4.8c3.4-0.3,7.9,0.8,8.4,3.4c0.4,1.9-1.1,3.1-1.7,4.7c3.4,5.2,14.5,2.5,18.8,0 c2.9-5.9,6.6-11,14.4-12c-3.8,3.9-8.2,8.8-11.3,13.9c-1.1,1.8-2.4,3.6-2.6,5.8c-0.4,4,1.6,7.2,3.4,9.6c1.9,2.7,3.9,5,7.1,6 c2.3-6.2,6.8-10.3,9.8-15.7c2.7,9.2,7.9,16,19.2,16.7c-3-10.2,0.3-21.8,3-30c2,4,5.2,7.3,8.8,9.7c3.6,2.5,8,4.9,13.3,5 c-0.1-1.2-1.1-1.7-1.6-2.8c-1.5-3.7-1.3-9.4-1-14.4c0.3-5.1,1-10.2,1.8-13.9c1,5.8,4.3,10.1,9,12.6c3.2,1.8,7.9,3.3,12.7,3.5 c1.6,0.1,3.5,0.3,4.8-0.7c-5.5-2.2-5.9-11.5-4.9-18.7c6.6,5.1,18.5,9.9,30.2,6.6c-2.2-2.6-3-6.4-4.1-10.2c-0.8-2.9-2-6.1-1.4-9.2 c1.8,1.4,2.9,3.2,4.7,4.6c2.8,2,6.5,3,11.4,2.9c-2.5-4.7-4.3-11.9-4.8-19.2c3,1.4,6.7,2.3,11.2,2.3c0.3-0.6-0.5-1-0.7-1.4 c-1-1.7-1.5-4-2.2-6.1c-0.8-2.7-1.9-5.7-2.3-8.6c-0.5-3.9-0.2-8-0.2-12.1s-0.2-8.2-0.1-12.4C647.1,81.6,651.4,81.6,654.7,81.1z M593.9,45.8c0.7-0.9,1.4-1.8,2.2-2.6c1.6,0,3.2,0,4.8,0c0.2,0.9,0.3,1.9,0.5,2.9C598.8,46,596.3,45.9,593.9,45.8z M624.8,59.3 c-0.5,6.4-7.8,12-11.4,15.5c1.2-2.2,2.6-4.6,4-7.2c1.3-2.4,2.9-5.1,3.2-8.2c0.3-3-0.2-6.1-0.2-9.4C623.6,51.3,625.2,55.2,624.8,59.3 z"></path> <path class="st0" d="M248,557.9c-2.1,3.4,3.1,5.9,6.7,5.6c2.7-1.2,3.3-4.4,4.6-7c-1.5-1.8-3.4-3.2-6.2-3.7 C252.1,554.5,248.9,556.5,248,557.9z"></path> <path class="st0" d="M224.6,673.9c-0.7,0.8-1.6,1.8-1.2,3.2c1.3,0.7,2.6,0.3,4-0.1c0.1-0.3-0.3-1-0.1-1.7 C226.6,674.7,225.8,674.1,224.6,673.9z"></path> <path class="st0" d="M226.8,679.4c-0.1,1.4,0.4,2.3,1.6,2.5c0.4-0.9,1.7-1.2,1.2-2.6C228.8,678.9,227.4,679,226.8,679.4z"></path> <path class="st0" d="M232.8,682.3c-0.2-0.2-1.1,0.1-1.3,0.2c-0.3,1,0.2,1.7,1.2,1.7C232.6,683.5,232.9,683.1,232.8,682.3z"></path> <path class="st0" d="M236.4,684.4c-0.1,0.5,0.2,0.7,0.1,1.3c1.1,0.2,1.6-0.3,2.3-0.5c-0.1-0.5-0.3-0.8-0.5-1.2 C237.3,683.8,237.1,684.1,236.4,684.4z"></path> <path class="st0" d="M234.6,690c-3.3-0.6-5.9-3.5-9.1-4.2c-3.2-0.7-6.1,0.4-8.3,1.2c-2.7,1.1-6.8,3.2-4.8,6.7 c4.9,0.6,13.5-4.8,15.4,1.8c3.9,2.3,6.4-1.6,10.2-1.8c0.4-0.9,1.1-2.4,0.4-3.5C236.9,690.1,235.8,690.2,234.6,690z"></path> <path class="st0" d="M265.1,691.3c1.1,0.4,1.5-0.6,1.8-1.4c-0.4-0.3-0.8-0.7-1.6-0.6C265.2,689.9,265.2,690.7,265.1,691.3z"></path> <path class="st0" d="M261,692.2c0.4-0.6,1.1-1,1.3-1.8C261.3,688.4,258.3,691.9,261,692.2z"></path> <path class="st0" d="M268.2,692c0.7-0.2,0.6,0.1,1.2,0.2c0.7-0.6,1.3-1.4,0.5-2.3C268.6,689.9,268.4,691,268.2,692z"></path> <path class="st0" d="M242.3,691c-0.8,0.9-0.6,1.9-1.1,2.9c-0.6,1.3-2.7,1.7-2.5,3.6c1,1.6,3.7,1.4,6.4,1.4c1.5,0,1.6-0.1,2.8-0.5 c2.3-0.8,4.9-1,6.2-2.3c2.2-2,0.8-5.2-2-5.5C248.9,692.2,244.9,689.5,242.3,691z"></path> <path class="st0" d="M272.2,692.9c0.3,0.2,0,1,0.2,1.3c0.9,0.2,1.7-0.4,2.4-0.8c0-0.7,0.1-0.7,0-1.3 C273.8,691.5,272.6,692.1,272.2,692.9z"></path> <path class="st0" d="M277.6,697.2c0.7,0.1,1.1-0.2,1.8-0.1c0-0.6,0-1.2-0.1-1.7c-0.4-0.2-0.8-0.4-1.6-0.4 C277.7,695.9,277.5,696.3,277.6,697.2z"></path> <path class="st0" d="M279.1,700.1c-0.1,0.9,0.1,1.5,0.2,2.2c0.7,0.1,1.2-0.1,1.8-0.1C281.7,700.6,280.2,699.3,279.1,700.1z"></path> <path class="st0" d="M283.3,701.9c0,0.6,0.2,0.8,0.1,1.4c1,0.5,1.5-0.1,2.2-0.5c-0.1-0.5-0.4-0.8-0.5-1.2 C284.2,701.5,284,701.7,283.3,701.9z"></path> <path class="st3" d="M320,568.4c1.5,0.1,3,1.3,4.1,2.2C322.1,570.5,321.1,569.5,320,568.4z"></path> <path class="st0" d="M505.9,820.1c-1.3,0-2.6,0-3.8,0c-6.3-0.6-13.1-0.1-19.6-0.7c-3.6-0.3-7.1-1.2-10.6-1.8 c-3.6-0.6-7.1-1.2-10.6-1.8c-3.2-0.6-6.3-2-9.4-3c-3.1-1.1-6.2-2.1-9.1-3.1c-6-2-11.4-5.1-16.8-7.9c-2.8-1.4-5.5-2.7-7.9-4.4 c-7.2-5.1-14.4-9.8-21-16c-2.1-1.9-4.1-4.1-6.2-6.1s-4.5-3.9-6.2-6c-3.7-4.4-7.1-9.3-10.7-13.9c-1.9-2.4-3.3-4.6-4.9-7.4 c-1.5-2.6-3.1-5.1-4.4-7.8c-3.9,5.2-6.6,10.9-10.2,16.1c-1.7,2.5-3.9,4.8-5.9,7.2s-3.9,4.8-5.9,7.2c-3.8,4.7-8.9,8.5-13.4,12.8 s-9.8,7.8-14.8,11.4c-2.6,1.9-5.2,3.6-8,5.2c-5.6,3-11.4,6.3-17.5,8.6c-3.1,1.2-6.2,2.4-9.5,3.6c-6.5,2.5-13.6,3.6-20.9,5.3 c-7.4,1.7-15.4,1.7-23.5,2.6c-1.2,0-2.4,0-3.6,0c0-0.1-0.1-0.1-0.2-0.1c-4.5-0.2-8.8-0.4-13-0.6c-8.1-0.4-15.9-2.4-23.3-3.8 c-3.5-0.7-6.9-2.1-10.2-3.2c-3.5-1.2-6.8-2.2-10.1-3.5c-3.1-1.2-6.2-2.8-9.1-4.3c-3.1-1.5-6.1-3-9-4.6c-2.8-1.5-5.5-3.5-8.2-5.3 c-2.8-1.9-5.5-3.6-8.2-5.4c-2.6-1.8-4.8-4.2-7.2-6.2c-2.5-2.1-4.9-4.2-7.3-6.2c-2.4-2.1-4.3-4.5-6.5-7c-2.2-2.4-4.4-4.7-6.4-7.2 c-1.9-2.5-3.8-5.1-5.6-7.8c-3.7-5.2-6.9-10.9-10.3-16.7c-1.6-2.8-2.8-6.2-4.2-9.4c-1.4-3.2-2.9-6.3-4-9.6c-1.1-3.4-2.2-6.8-3.4-10.2 c-1.2-3.5-1.6-7.3-2.4-11c-1.5-7.3-2.6-15.8-2.6-24.4c0-6.6,0.2-13.5,0.8-19.4c0.1-0.9,0.7-1.8,0.7-2.6c0-0.9-0.4-1.6-0.2-2.9 c0.3-1.9,1.1-3.6,1.3-5.5c0.2-2,0.6-3.8,1.1-5.6c1.8-7.3,3.4-14.3,6.2-20.8c1.4-3.1,2.9-6.2,4.2-9.2c1.5-3.3,2.8-6,4.7-8.9 c3.5-5.5,6.6-11.3,10.8-16.2c2.1-2.4,4-5,6.1-7.3c-0.1,0-0.2,0-0.4,0c-1,0.2-0.8,0.1-0.7-0.6c0.1-1.1,1.3-2.6,2.2-3.8 c2.6-3.6,6.4-5.6,9.7-8.2c4.7-3.6,9-7,13.6-10.2c2.3-1.6,4.7-3.2,7.1-4.8c2.4-1.6,4.6-3.5,7.1-4.8c5.2-2.7,10.6-5.3,15.8-7.9 c2.6-1.3,5.7-2,9-3c3-0.9,6.2-2,9-2.9c12.2-3.7,26.5-5.3,41.6-5.9c3.7-0.1,7.6,0.3,11.3,0.6c3.6,0.3,7.1,0.9,10.3,1.6 c0.8,0.2,1.7,0.5,2.5,0.5s1.3-0.3,2.2-0.1c0.8,0.2,1.4,0.6,2.2,0.8c0.9,0.3,1.7,0.2,2.6,0.4c3.2,0.4,6.4,1.5,9.5,2.4 c3,0.9,6.1,1.7,9,2.9c5.5,2.3,11.2,4.6,16.8,7c2.6,1.1,5.1,2.8,7.6,4.3c5,3,10.1,5.8,14.4,9.4c4.4,3.7,8.8,7.2,13.1,10.8 c4.2,3.6,7.8,8,11.6,12.1c1.9,2,4,4,5.6,6.2c1.6,2.3,3.2,4.7,4.8,7.1c3.2,4.7,6.8,9.2,9.2,14.5c3.7-5.1,5.8-10.9,9.5-15.6 c3.7-4.7,7.4-9.3,11.2-13.9c1.9-2.3,4-4.3,6.2-6.4c4.3-4,8.3-8.5,13.2-11.9c2.4-1.7,4.9-3.4,7.3-5.2c5-3.5,10-6.7,15.4-9.7 c2.7-1.5,5.4-3,8.4-4.2c2.9-1.2,5.8-2.4,8.9-3.6c12-4.8,25.6-8,40.9-9.1c3.9-0.3,7.7-0.9,11.6-0.7c4,0.1,8,0.3,12,0.5 c3.7,0.1,7.5,0.9,11.2,1.4c3.7,0.6,7.2,1.1,10.4,2c6.6,1.9,13,3.9,19.1,6c3.1,1.1,6.1,2.1,9,3.5c2.9,1.3,5.6,2.7,8.4,4.1 c5.4,2.7,10.6,6.1,15.6,9.5c2.5,1.7,4.7,3.6,7.1,5.5c2.4,1.9,4.9,3.6,7,5.5c4.3,4,8.8,8.1,12.6,12.5c2,2.3,3.8,4.5,5.8,6.7 c5.7,6.7,10.7,14.3,15.4,22.2c1.6,2.7,3.1,5.4,4.3,8.3c2.3,5.7,5.5,11.7,7.1,18c1.6,6.5,3.7,13.4,4.6,20.5 c0.9,7.2,1.8,15.1,1.7,23.4c-0.1,4.1,0,8.2-0.2,12.2c-0.2,3.6-1,7.4-1.6,11c-0.6,3.8-0.9,7.5-1.8,10.7c-0.9,3.3-1.8,6.6-2.8,9.8 c-0.9,3.3-1.7,6.6-3,9.5s-2.6,5.8-3.8,8.6c-1.3,2.9-2.4,5.9-4,8.5c-3.2,5.2-6.5,10.3-9.8,15.2c-1.6,2.4-3.9,4.5-5.9,6.7 c-3.9,4.5-7.5,9.1-12,13.1c-4.4,3.8-9,7.7-13.4,11.5c-2.3,1.9-4.9,3.4-7.4,5c-4.9,3.1-10,6.8-15.7,9.4c-2.8,1.3-5.8,2.5-8.8,3.8 c-2.8,1.3-5.7,2.9-8.6,3.8c-6.4,1.9-13,3.5-19.8,5.3C521.1,818.8,513.5,818.5,505.9,820.1z M377.2,747.6c3.1,4.9,7.1,9.2,10.7,13.8 c1.8,2.3,3.5,4.4,5.6,6.5c2.1,2,4.1,4,6.2,6s4.1,4.2,6.4,5.9c4.7,3.6,9.4,6.8,14.2,10.2c1.2,0.9,2.2,1.8,3.6,2.5 c1.3,0.7,2.7,1.3,4.1,2c5.3,2.7,10.6,6.1,16.4,8c2.9,1,5.9,2.1,9,3.1c3,1,6.1,2.4,9.2,3c3.3,0.7,6.9,1.2,10.4,1.8 c3.4,0.6,6.9,1.5,10.4,1.8c3.8,0.3,7.9,0.3,11.8,0.4c4,0.1,8,0.6,11.6,0.1c3.6-0.4,7.2-1,10.8-1.4c3.7-0.5,7.2-0.8,10.6-1.7 c3.2-0.8,6.4-1.8,9.5-2.6c3.3-0.9,6.6-1.5,9.5-2.8c5.7-2.6,11.3-5,16.9-7.6c2.6-1.2,5.1-3,7.6-4.6c3.8-2.3,7.8-4.6,11.2-7.2 c3.5-2.7,6.7-5.6,10-8.4c2.2-1.9,4.5-3.7,6.5-5.8s3.8-4.3,5.8-6.5c3.9-4.4,7.8-8.7,11-13.4c3.2-4.8,6.7-9.7,9.1-15.2 c2.5-5.6,5.3-11.2,7.1-17.4s3.9-12.5,4.9-19.4c0.5-3.5,1-7,1.6-10.7s0.6-7.5,0.6-11.6c0-4,0.4-8,0-11.9c-0.7-7.4-1.2-15-2.9-21.6 c-0.8-3.4-1.6-6.6-2.4-9.8c-1.6-6.4-4.2-12.1-6.6-17.8c-3.5-8.5-8.6-15.9-13.7-22.9c-1.7-2.4-3.3-4.9-5.2-7.1 c-3.8-4.4-7.6-8.8-11.8-12.7c-2.1-2-4.2-3.9-6.2-5.9c-2.1-2-4.4-3.7-6.7-5.5s-4.4-3.8-6.8-5.4c-4.8-3.2-10-6.5-15.2-9.1 c-2.7-1.3-5.4-2.6-8.3-4c-8.3-3.9-18.3-6.3-27.6-9.1c-3.2-1-6.7-1.4-10.3-1.9c-3.5-0.5-7.2-1-11-1.2c-3.9-0.2-7.9-0.6-11.9-0.4 c-4.1,0.2-8.4,0.7-12.4,1c-3.8,0.3-7.5,1.2-11,1.8c-7.3,1.2-14,3.1-20.5,5.3c-3.1,1-6.1,2.5-9.1,3.7c-3.1,1.3-6.1,2.5-8.9,4.1 c-2.8,1.5-5.5,3.1-8.2,4.7c-5.3,3.1-10.3,7.1-15.2,10.6c-2.5,1.8-4.7,3.7-7,5.9c-4.5,4.2-9,8.2-12.8,13c-3.8,4.7-8.2,9.2-11.3,14.5 c-3.1,5.4-6.3,10.7-9.2,16.6c-0.1,0-0.1,0.1-0.1,0.2c1.1,2,2,4.1,3,6.1c1.1,2.2,1.8,4.3,2.5,6.7c1.4,4.4,3,9.1,4.6,13.8 c1.5,4.7,1.8,10.3,2.6,15.7c0.4,2.6,1,5.4,1.2,8c0.2,3-0.1,6-0.1,9.1c0,12-0.9,23.7-3.5,33.2c-1.3,5-2.6,9.8-3.8,14.5 c-1.2,4.8-3.6,8.9-5.3,13.2C371.5,737.2,374,742.7,377.2,747.6z M331.8,572.8c-1.3-1.3-2.9-3.4-4.4-4.1c-0.5-0.2-1.1,0-1.6-0.2 c-1.6-0.6-3.4-3.3-5-3.2c1,2.7,4.3,3.2,5.4,5.8c-0.7,0.8-1.7,1.9-2.8,1.9c-2.3,0.1-3.7-4.1-6.4-3.1c0.6,6.6,10.4,5.6,12,11.4 c0.4,1.3,0.6,3.6,0.6,5.4c0,3.6-0.7,6.1-2.4,7.6c-5.5,0.1-5.9-6.1-9.4-8c-2.5-1.4-6.5-1.2-7.1-4.2c-0.4-2,0.7-3.3,2-4.2 c-0.8-2.6-3.9-1.3-5.8-2c-1.5-0.6-3-2.4-3.6-3.8c-1.1-2.4-1.8-7.9-5.4-6.7c-0.8,1.3,0.1,3.6-1.4,4.2c-1,0-1.3-0.8-2.3-1 c-0.8,1.1-0.2,3-1.2,3.7c-0.8,0.6-2.7-0.1-3.7-0.5c-2.4-1-5.8-4.5-5.9-6.4c-0.1-3.5,3.9-0.6,6.1-1c-0.4-3.5-5.4-1.3-7.9-2.3 c-0.6-0.2-1-1-1.8-1.6c-1-0.8-1.8-1.1-2.3-1.7c-0.8-1.1-0.9-3.2,0.7-3.7c4.1-1.2,6.6,3.2,11.5,2c0.2-0.4,0.4-0.9,0.6-1.3 c-1.8-2.7-9.1,0.1-8.3-5.3c1.3-1.3,4.6,0.4,4.7-1.7c0-1.1-2.4-1.9-3.6-2.5c-1.9,0.3-2.3,2-3.6,2.8c-1.1-0.3-2.5-1.5-3.6-0.7 c-0.1,0.9,1.6,1.6,1,3.1c-7.4,0.3-7.9-6.7-15-6.4c-0.8-0.8-1.3-1.9-2.5-2c-1.8-0.2-3.7,1.5-5.4,1.6c-2.6,0-3.6-3-5.8-4 c-1.7-0.7-3-0.6-5,0.7c-1.6-0.5-2.6-1.6-3.2-3c0.2-0.6,0.4-1.3,0.6-1.9c-4.3-2-10.2-2.4-16.2-2.8c-2-0.1-4.2-0.7-6-0.4 c-1.1,0.2-2.4,1.1-3.8,1.2c-3.2,0.1-6.5-1.8-9.2-0.7c-0.6,0.2-1.1,1-1.7,1.3c0.5,0.5,1.6,0.8,2.4,0.4c0.7,0.8,1.7,0.5,2.9,0.6 c4,0.5,7.8,2.9,12.5,1.6c2.1,3.3,7.3,7.7,3.8,13c3.7,0.2,7.1,0.7,7.3,4.4c0.9-0.1,2.5-1.1,3.8-1c1.6,0.1,2.8,2.3,3.6,3.6 c3,5.1,3.9,14.6,6.4,19.9c0.5,1.1,2.1,2.7,1.9,3.6c-0.4,2-3.9,1-5,1.8c-1.7-2.7-6.8-1-9.5-2.4c-3.5-1.8-4.6-6.9-9.7-6.8 c-1-0.8-1.6-1-1.6-2.3c0.1-0.9,1.2-1.5,1.1-2.3c-0.1-0.8-1-0.7-2-1.2c-3.5-1.5-4.5-4.9-8.3-5.5c-1.1,0.5-1.8,0.3-2.6,0.7 c-2.2,1.2-2.4,5.2-5.9,3.8c-1.4-1.3-3.2-2.2-4-4.2c0.9-3.6,2.2-8,3.8-10.6c0.4-0.6,1.5-1.3,1.1-1.9c-0.5-0.8-3.5,0.3-4.4,1.3 c-1.4,1.6-1.3,3.4-0.5,5.3c-3.1,1.7-3.7,6.5-3.4,11.2c2.4,1.8,8.1,0.5,9.2,3.6c2.9,0.4,4.7,3.5,8.2,4c1.4,0.2,2.8-0.7,4.1-0.5 c1.7,0.3,1.2,2.6,0.6,3.7c-1.4,1.2-3.4-0.1-4.8,0.4c1.5,3.3,7.5,2.9,6,8.5c-1.2,0.5-3,1.8-3.1,3.1c-0.1,0.9,0.6,2,1.3,2 c1.7,0,1.6-3.4,3.1-3.8c4.5-1.2,3,6.6,7.8,4.6c0.5,1.3,1.3,2.4,2.4,3.2c4.5,1.2,10.3-0.5,12.5,3c0.6,1,0.9,2.1,1.4,3 s0.9,1.8,1.9,2.5c4.1-1,8.4,0,10.1,2.8c-3.2,2.6-6.7,4.9-12.5,4.9c-2.4-0.7-2.5-3.7-4-5.3c-1.8-0.6-3.1,0.4-4.7,1.2 c-3.9,1.9-7.2,5.3-8,9.6c2.6-1.4,4.5-6.4,8.3-5.8c2.5,0.4,3,3.6,4.4,5.4c1.4-0.9,2.2-3.1,4.3-3c3.2,0.2,1.6,5.4,1.2,7.9 c-2.7,1.2-3.2,5.1-7.3,4.4c-1.2-0.8-0.7-3.3-1.7-4.3c-2.5,0.8-1.3,4.6-3.4,5.8c-0.7,0.4-1.3,0-2,0.2c-0.9,0.3-1.9,1.7-2.3,2.2 c0.4,1.7,2.6,2.2,2.5,4.1c-0.2,2.8-5.1,3-7.2,4c0.1,4.1-1.1,8-0.6,11.6c-1,1.7-0.4,4.4-0.8,6.7c-2.8,3.6-7.8,5-7.9,11.3 c1.9,4.1,6.3,7.3,4.8,13.7c-1.2-0.2-2.4,0.9-3.8,0.4c-1.2-0.4-1-1.8-1.9-3.1c-1.6-2.2-6.6-2.9-5.6-6.5c-2.5-3.6-8.8-1.5-12.2-0.1 c0.5,1.8-0.4,3.8-2.2,4c-2.1,0.2-4.5-1.7-6.8-1.8s-3.2,1.2-4.3,2.3c-1.3,1.2-2.9,2.5-2.9,4.7c0,1.3,1.4,1.8,1.6,3.2 c0.1,1-0.3,1.6-0.1,3c-2.7,0.7-3,4.4-2.2,6.8c1.6,4.7,5.9,8.9,10,10.8c1.1-0.2,2.8-0.2,3.8,0c3.3-1,2.9-5.8,4-9.1 c2-1.8,4.7-2.9,8.2-3.2c0.8,1.3,2,2.3,2.4,3.7c0.9,3.1-1.4,5-2.4,6.8c-1,1.9-1.9,3.7-1.6,6.2c0.7,0.4,1.8,0.4,2.8,0.6 c1.4-1,1.9-3.1,3.6-3.5c4-1,6.2,2.6,7.9,4.4c-0.9,1-1.5,2.8-1.2,5.2c0.3,2.3,3.1,6.7,4.6,7.8c1.8,1.4,3.6,0.1,4.7-1.1 c1.2-1.2,2-3.1,3.6-3.5c3.5-0.8,4.3,3.6,7.9,3.1c2.9-2,3.1-8,7-10.1c1-0.5,2.3-0.7,2.9-1.4c0.9-1.1,0.8-4.2,2.4-4.3 c0.8,0,1.8,0.9,2.2,1.4c0.6,1,0.8,2.6,1.3,3.7c2.2-0.9,0.4-3.4,0.7-4.9c0.2-1,2.3-1.7,3.5-1.6c2.4,0.3,2.8,3.7,4.8,4.7 c6.6,1.3,7.1-8.5,12.7-5.2c0.1,1,0.8,1.3,1.2,1.9c1.9,0.9,3.4-0.4,4.9-0.1c1.2,0.2,1.9,1.3,3,2c2.4,1.6,5,2.9,9,2.9 c1.2-1.4,3.4-3.5,6.2-3.4c1.1,0.1,2.7,1.3,4.3,1.8c2,0.6,4,0.8,5.5,1.6c2.8,1.4,5.2,5.3,3,8.4c-0.8,0.3-2,0.2-1.9,1.3 c7.4,0.8,12.5-4.4,19.1-4.9c1-0.1,2.4-0.1,3.6,0.1c1,0.2,2.3,1.6,3.6,1.6c0.4,0,0.9-0.5,1.4-0.7c3.4-1.2,7.2-0.1,9.2,2 c-0.3,1.3,0.5,2.4,0.4,3.7c-0.1,1.1-0.8,2.3-1.1,3.5c-1.6,6.2-3.1,12.1-3.2,19.6c-4.2,6.8-8.1,13.9-10.4,22.6 c4.1-4.4,8.3-9.3,12.6-14.2c2-2.3,3.7-5.3,5.5-8c3.2-4.9,6.1-9.2,8.3-14.8c-2.2-5.2-4.2-11-6.2-16.4c-0.7-1.8-1.7-3.6-2.2-5.5 c-0.8-3.3-1.3-7-2-10.7c-0.7-3.6-1.6-7.2-2-10.8c-0.4-3.4-0.4-7.1-0.7-10.8c-0.3-3.6-0.8-7.3-0.8-10.8c0-3.4,0.6-7.1,0.8-10.7 c0.3-3.7,0.3-7.4,0.8-10.8c0.5-3.3,1.8-6.5,2.4-10.1c-1.6-2.2-1.7-5.9-5.6-5.8c-0.7-4.2-1.9-6.8-3.8-9.8c-1-1.5-3-3.9-3.1-5.6 c-0.1-1.2,1-2.5,1.3-4c0.4-1.7,0-2.8-0.5-4c-6.6-2.7-8-12.7-6.4-21.8c-1.1-3.1-4.5-8.3-1.9-12.1c2.9-0.4,3.6,2.3,5.2,3.6 C335,575.5,333.3,574.3,331.8,572.8z M196.7,537.6c-2.3-0.5-3.7,0.7-5.3,1c-1.1,0.2-1.7,0.4-1.9,1c-0.9,2.2,3.1,1.5,4.4,2 c1.4-1,4.3-0.5,4.3-2.9C198,538.3,197.4,537.8,196.7,537.6z M274.1,540.1c-1.4-0.3-3.3-2.7-4.8-1.4c-0.6,0.5-0.8,2-0.7,2.8 c0.2,1.7,2.6,3.9,4.2,4c3,0,3.5-2.9,6.6-2.6C278.2,541.2,274.8,542,274.1,540.1z M116.8,584.4c-3.3,4.1-6.7,8-9.1,12.8 c0,0.1-0.2,0.2,0,0.2c0-0.1,0-0.1,0.1-0.1c2.4,0,4.1-0.7,5.5-1.4c2.1-1.1,3.4-2,4.9-3.6c1-1,2-2.1,2.5-3.1c-1-5.6,4.1-6.9,7.8-8.5 c0.2-1.8,0.6-3.4,0.8-5.2c2-1.6,4,0.9,6.1,0.6c0.5-0.5,0.7-1.4,0.8-2.3c2.4-0.5,3.1-3.6,5.3-4.1c1.4-0.3,3.1,0.7,4.9-0.1 c1.9,0.8,2.8,2.4,4,4.3c0.7,1.2,2.3,4.2,3.8,4.6c2.6,0.5,6.4-1.6,8.4,0.6c0.7,1.7,1.4,3.4,3,4.3c1.3-0.4,2.7,0.7,4.4,0.6 c0.4-0.3,0.8-0.7,1.1-1.1c-1.1-2.5-7.1-1.7-5.3-5.9c-2.2-0.4-5.5,0.3-4.7-3.1c0.5-0.9,2-2.1,1.8-2.9c-1.3-0.2-2.4,0.5-3.6,0.5 c-0.6,0-1.1-0.3-1.7-0.4c-1.2,0-2.3,0.4-3.4,0.4c-3.7-0.3-5.8-3-7.6-5.6c1.5-3.9,5.1-5.8,5.6-10.7c9.6-4.3,19.7-8.9,29-13.3 c1.2-0.6,3.1-1.1,3.4-2.8c-2.8-0.5-4,1.9-6.1,2.8c-1.3,0.5-2.5,0.2-4.1,0.4c-1.8,0.2-3.7,1.2-5.5,1.9c-3.3,1.3-7.7,2.5-9.5,5.2 c0,0.5,0.2,0.9,0.1,1.6c-6.4,0-10.4,3.5-14.2,6.1c-1,0.7-5.3,3.2-5.4,4.6c-0.1,1,0.8,1.3,0.6,2.4c-0.5,2.7-5.8,2.2-4.3,6.4 c-0.7,1.1-2.1,3-3.6,3.4c-2.2,0.6-3.8-0.6-4.7-2.2C123.9,575.4,120.4,579.8,116.8,584.4z M225.5,551.6c-0.8-1.1-2.6-1.7-4-1.8 C222.1,551.2,224,551.2,225.5,551.6z M190.3,557.8c-4.7,1.5-7.2,5.2-13.2,5.4c-2.1,3-7.9,2.2-9.1,6.1c1.5,0.1,2.8,0.5,4.3,0.6 c0.3,3.9,5,3.3,7.1,5.4c0.9,3.7-1.9,4.7-2,7.8c1.3,2.1,3.9,0.5,6.1,0.4c0.6-1.2-0.7-2-0.7-3c0-0.9,0.7-2.2,1-3.1 c0.4-1.2,0.7-2.3,1.7-2.4c2.3-0.2,2.1,3.3,3.4,4.4c0.7,0.2,1.4,0.5,2.2,0.6c1-2.7-1.8-3.5-2.3-5.4c-0.4-1.6,1.2-3.7,0.6-5.2 c-0.3-0.7-1.3-0.8-2.2-1.1c-0.1-0.6-0.5-1-0.6-1.6c0.8-1.5,1.4-3.4,1.2-5.5c0.2,0,0.2-0.3,0.5-0.4c1.1,0.1,2.4,0.1,3.4,0.5 C192.2,559.8,191.2,558.7,190.3,557.8z M199.7,579.2c-1.3,3.8-4.8,5.3-6.4,8.8c2.5,0.7,3.2-1.2,5.3-0.7c1.5,0.3,3,3.5,3,4.9 c0,1.7-1.9,3.9-3.1,4.3c-3.7,1.4-4.9-3.9-7.9-3.4c-1.7,0.3-2.3,2.6-3.1,4c-0.6,1-1.2,1.9-1.3,2.5c-0.3,2.1,1.1,4.2,2.8,4.7 c2.1,0.6,4.2-0.1,6.8-0.1c1.9,2.1,6.3,0.1,6.7,3.2c0.1,0.9-0.4,1.3-0.1,2.2c0.4,1.2,2.1,2,3.1,2.9c0.8,0.7,1.1,1.5,1.9,1.8 c0.8-1.1,0.2-2.6-0.4-3.6c-0.5-1-2.8-2.5-2.4-3.8c0.4-1.4,4.4-1.1,3.5-4.1c-0.5-1.8-3.9-1.2-4.7-3.2c1.3-2.1,0.2-6.6,1.3-8.9 c0.9-1.2,3.9-1.8,5.8-1.2c1.5,0.5,2.3,2.1,4,2c0.7-0.3,1.5-0.5,1.9-1.1c-1.2-0.9-2.7-1.5-4.7-1.8c-1.8-0.3-4.1-1-5.8-0.7 c-1.3,0.2-2.3,1.6-3.5,0.6c-1.1-3.4,1.1-5.7,3.1-7C204.3,580.2,202.2,578.2,199.7,579.2z M156.8,583.9c-1,0.4-2,1.9-1.3,3.4 c1.6,1,2.1,3.1,4.6,3.2c1.3-1,2.5-2,2.6-4.2C161.5,585.7,159.2,583.1,156.8,583.9z M167.6,594.8c-0.6-0.8-1-1.9-1.8-2.5 c-2.4,0.6-4.6,1.4-7.1,1.9c-0.5,0.5-1,1.1-1.3,1.8c-0.1,2.8,1.7,3.7,4.1,4C162.2,596.9,167.8,598.7,167.6,594.8z M130.7,609.4 c-0.6-1.1-1.8-2.1-1.8-3c-0.1-2.9,5.4-3.4,5.2-6.2c-0.1-1.2-1.4-1.4-2-2.3c-0.3-2.4-2.8-3.9-4.8-4c-3.4,0-4.6,3.9-7.4,4.9 c-0.5,0.2-1.1,0.1-1.7,0.2c-4.3,1.2-8.4,4.1-12.5,1.7c-1.3,2.2-2.5,4.5-3.8,6.8c-1.4,2.4-2.3,4.8-3.4,7.4c-2,5-4.7,10-6,15.5 c-0.6,2.8-1.4,5.7-2,8.6c-0.6,2.9-1.6,5.9-1.9,8.9c-0.4,3.2-0.6,6.5-0.8,10c-0.3,3.2-0.8,6.6-0.8,10c0,3.9,0.7,8,1,12 s0.5,8,1.2,11.8c1.4,7.3,2.2,15.1,4.6,21.4c1.2,3.1,2.4,6.2,3.6,9.4c1.2,3.1,2.3,6.3,3.8,9.1c1.6,2.8,3.1,5.6,4.7,8.3 c1.6,2.8,3,5.8,4.7,8.4c0.9,1.4,2.2,2.7,3.4,4.2c2.2,2.9,4.5,5.7,6.6,8.5c1.1,1.5,2.1,3.1,3.2,4.3c2.2,2.4,5.1,4.8,7.7,7.3 s5.1,5.3,7.7,7.4c2.6,2.2,5.6,4,8.5,6.1c2.8,2,5.6,4.3,8.5,6.2c1.4,0.9,3.2,1.7,4.8,2.5c1.6,0.9,3.3,1.7,4.9,2.5 c3.4,1.7,6.6,3.8,9.7,5c3.2,1.3,6.8,2.2,10.1,3.4c3.4,1.1,6.8,2.7,10.1,3.5c2.8,0.7,5.7,1,8.6,1.4c2.9,0.5,5.8,0.9,8.8,1.4 c6.1,1.1,12.5,1,19.1,1.3c6.4,0.3,12.6-0.6,18.7-1.3c6-0.7,11.8-1.7,17-3.4c2.2-3.6,4.9-7.2,3.7-13c-0.2-0.8-0.6-1.6-0.6-2.4 c0-2.4,1.8-4.8,0.6-7.1c-1.8-1.6-4.3-2.2-6.7-3.1c-3-1.2-6.3-2.2-10.2-2.3c-0.5-3.2-4.7-2.6-6.4-4.8c-0.6-0.8-0.8-2.3-1.4-2.6 c-1.3-0.7-3.1,0.6-4.4-0.4c-0.7-1.2-0.4-2-0.8-3c-1.2-2.9-5.4-3.7-5.5-6.5c-0.1-1.6,0.8-1.7,1.3-2.9c-0.8-1.2-2.9-2.5-3.1-4.4 c-0.2-1.9,1.6-3.4,1.6-4.8c0-0.8-0.7-2-1-3.1c-0.6-3.1-0.6-5.8,1.4-7.2c0.6-0.2,1.3-0.3,2-0.4c1.9-3,1.1-7.4-1.2-9 c-4.6-3.1-9.7,2.5-14.8,2.3c-0.8-0.7-0.9-1.7-1.6-2.4c-2.6-2.6-8-3-10.2-5.6c-0.9-1-1.3-2.4-1.2-4.2c-2.3,1.2-3-1.4-4.6-2 c-3.8,0.7-9.4,3.7-12.2,0.2c-1-1.2-0.9-3-1.4-4.9c-4.1-2.3-7.3,1.6-10.9,1.2c-2.6-0.3-2.8-3.9-6.7-2.9c-1.4-1.3-1.9-3.4-4-3.8 c-1.3-0.3-2.5,0.9-4,1c-2,0.1-3-1.2-4.8-1.6c-1.1-2.8,0.1-6.3,1.6-7.9c-4.3-8-9.9-15.2-15-22.2c-0.8-1-1.6-2.2-2.4-2.8 c-0.8,0.8,0.1,2,0.4,2.8c2.5,7.1,6.6,12.9,10.6,18.2c-0.5,1.1-1.1,2.1-2.4,2.5c-5.6-2-7.6-7.8-10.3-12.7c-2.4-0.5-4.2-1.4-5-3.5 c2-2.6-1.3-6-1.8-8.8c-0.4-2.3,0.2-4.8-0.8-6.5c-0.8-1.2-2.3-1.5-3.1-2.3c-2.3-5.2-6.5-12.3-5.6-20.2c0.3-2.8,1.4-4.6,2.4-6.7 c0.9-0.6,1.8-1.2,2.3-2.3c-0.1-2.2-1.7-3.4-1.3-5.3c0.2-1.1,1.5-1,1.9-1.9c0.4-0.8,0.2-2,0-2.8c-0.5-1.8-2.1-3.3-2-5.5 c0.4-1,1.4-1.3,2.3-1.7C133,615,132.4,612.4,130.7,609.4z M360,628.2c-0.9,2.9-1.5,6.4-2.3,9.8c-0.7,3.2-1.8,6.6-2.3,9.8 s-0.6,6.7-0.8,10.1c-0.3,3.4-0.8,6.9-0.8,10.1c0,3.3,0.6,6.8,0.8,10.3c0.3,3.5,0.3,7.1,0.7,10.6c0.4,3.3,1.4,6.8,2,10.3 c0.7,3.6,1,7.3,1.9,10.4c0.7,2.4,1.9,4.7,2.8,7.1c0.9,2.4,1.8,4.9,2.8,7.2c1.3-3,2.1-6.4,3.1-9.8c0.9-3.3,2.2-6.7,2.9-10.2 c0.6-3,0.9-6.3,1.4-9.6c0.5-3.2,1.2-6.5,1.4-9.6c0.2-3.1,0.1-6.5,0.1-9.7c0-3.3,0.3-6.6,0.1-9.7c-0.2-3.2-0.7-6.4-1.1-9.5 c-0.4-3.3-0.6-6.6-1.1-9.6c-0.4-2.3-1.2-4.6-1.8-6.8c-1.8-7.1-3.2-14.1-6.2-19.8c0-0.1,0-0.1-0.1-0.1 C362.7,622.3,361,625.1,360,628.2z M209.8,630.8c-0.1-1.2-2-3.4-2.9-3.7c-1.7-0.7-2.7,0.8-4.1,0.5c-1.5-0.3-1.4-2.8-2-3.8 c-2.7-2.7-9-1.1-11.8,0.6c-0.7,1.3-2,2-1.7,4.3c0.7,0.6,1.2,1.4,2.2,1.6c2.5,0.5,6.2-2,7.7,0.5c-2.2,0.1-3.4,1.2-4.1,2.8 c1,3.2,0.4,8.1,1.8,10.9c0.5,0.2,1,0.5,1.6,0.6c0.3-0.3,0.7-0.5,1.2-0.6c0.5-0.9,0.9-1.9,1.7-2.5c1.1-3-1.3-6-0.1-9 c1.1,1.2,2.3-0.1,3.8-0.1c1,1.4-0.7,2-0.5,3.4c0.3,1.6,2.4,1.2,4.4,1.1c-0.2,1.1-0.2,1.9,0.1,2.8c0.9,0.4,1.9,0.1,3,0.5 c1.8-1,3.3-2.3,4.1-4.3c-0.7-2.6-3.8-1.1-5.5-0.7C208.8,633.6,210,632.5,209.8,630.8z"></path> </svg>